<svg width="44" height="44" viewBox="0 0 44 44" fill="none" xmlns="http://www.w3.org/2000/svg">
<g clip-path="url(#clip0_171_397)">
<path opacity="0.1" fill-rule="evenodd" clip-rule="evenodd" d="M0 22.0009C0 9.85059 9.84974 0.000854492 22 0.000854492C34.1503 0.000854492 44 9.85059 44 22.0009C44 34.1511 34.1503 44.0009 22 44.0009C9.84974 44.0009 0 34.1511 0 22.0009Z" fill="white"/>
<path d="M28.031 23.4249L28.7044 19.0343H24.4919V16.1865C24.4919 14.985 25.0793 13.8132 26.966 13.8132H28.8824V10.0753C28.8824 10.0753 27.144 9.77869 25.4827 9.77869C22.0119 9.77869 19.7454 11.882 19.7454 15.6881V19.0343H15.8889V23.4249H19.7454V34.0392C20.5197 34.1608 21.3118 34.2231 22.1187 34.2231C22.9256 34.2231 23.7176 34.1608 24.4919 34.0392V23.4249H28.031Z" fill="white"/>
</g>
<defs>
<clipPath id="clip0_171_397">
<rect width="44" height="44" fill="white" transform="translate(0 0.000854492)"/>
</clipPath>
</defs>
</svg>
