<svg width="44" height="44" viewBox="0 0 44 44" fill="none" xmlns="http://www.w3.org/2000/svg">
<path opacity="0.1" fill-rule="evenodd" clip-rule="evenodd" d="M0 22.0009C0 9.85059 9.84973 0.000854492 22 0.000854492C34.1503 0.000854492 44 9.85059 44 22.0009C44 34.1511 34.1503 44.0009 22 44.0009C9.84973 44.0009 0 34.1511 0 22.0009Z" fill="white"/>
<path fill-rule="evenodd" clip-rule="evenodd" d="M21.5122 9.77869C18.3256 9.77869 17.9257 9.79262 16.6741 9.84958C15.425 9.90678 14.5724 10.1045 13.8263 10.3947C13.0546 10.6944 12.4 11.0953 11.7478 11.7477C11.0951 12.3999 10.6942 13.0545 10.3935 13.826C10.1026 14.5723 9.90464 15.4252 9.84842 16.6738C9.79244 17.9254 9.77777 18.3255 9.77777 21.5121C9.77777 24.6988 9.79195 25.0974 9.84866 26.349C9.90611 27.5981 10.1039 28.4508 10.3938 29.1968C10.6937 29.9685 11.0946 30.6232 11.747 31.2754C12.399 31.928 13.0536 32.3299 13.8248 32.6296C14.5714 32.9198 15.4243 33.1175 16.6731 33.1747C17.9247 33.2317 18.3244 33.2456 21.5107 33.2456C24.6976 33.2456 25.0963 33.2317 26.3479 33.1747C27.597 33.1175 28.4506 32.9198 29.1971 32.6296C29.9686 32.3299 30.6223 31.928 31.2742 31.2754C31.9269 30.6232 32.3278 29.9685 32.6284 29.1971C32.9169 28.4508 33.1149 27.5979 33.1735 26.3493C33.2298 25.0977 33.2444 24.6988 33.2444 21.5121C33.2444 18.3255 33.2298 17.9256 33.1735 16.674C33.1149 15.4249 32.9169 14.5723 32.6284 13.8262C32.3278 13.0545 31.9269 12.3999 31.2742 11.7477C30.6215 11.095 29.9688 10.6941 29.1964 10.3947C28.4484 10.1045 27.5953 9.90678 26.3461 9.84958C25.0946 9.79262 24.6961 9.77869 21.5085 9.77869H21.5122ZM20.4596 11.8931C20.772 11.8926 21.1205 11.8931 21.5122 11.8931C24.645 11.8931 25.0163 11.9044 26.2534 11.9606C27.3975 12.0129 28.0184 12.2041 28.432 12.3647C28.9795 12.5773 29.3699 12.8316 29.7803 13.2422C30.191 13.6529 30.4452 14.044 30.6584 14.5916C30.819 15.0047 31.0104 15.6256 31.0625 16.7696C31.1187 18.0065 31.1309 18.3781 31.1309 21.5094C31.1309 24.6408 31.1187 25.0123 31.0625 26.2493C31.0101 27.3933 30.819 28.0142 30.6584 28.4273C30.4457 28.9748 30.191 29.3647 29.7803 29.7752C29.3697 30.1858 28.9798 30.44 28.432 30.6527C28.0188 30.8141 27.3975 31.0047 26.2534 31.057C25.0165 31.1133 24.645 31.1255 21.5122 31.1255C18.3791 31.1255 18.0078 31.1133 16.7709 31.057C15.6268 31.0042 15.006 30.8131 14.5921 30.6525C14.0445 30.4398 13.6534 30.1856 13.2428 29.7749C12.8321 29.3642 12.5779 28.9741 12.3647 28.4263C12.2041 28.0132 12.0127 27.3923 11.9606 26.2483C11.9044 25.0114 11.8932 24.6398 11.8932 21.5065C11.8932 18.3732 11.9044 18.0036 11.9606 16.7667C12.0129 15.6226 12.2041 15.0018 12.3647 14.5881C12.5774 14.0406 12.8321 13.6495 13.2428 13.2388C13.6534 12.8281 14.0445 12.5739 14.5921 12.3607C15.0057 12.1994 15.6268 12.0087 16.7709 11.9562C17.8533 11.9073 18.2727 11.8926 20.4596 11.8902V11.8931ZM27.7754 13.8414C26.998 13.8414 26.3674 14.4713 26.3674 15.2489C26.3674 16.0262 26.998 16.6569 27.7754 16.6569C28.5527 16.6569 29.1834 16.0262 29.1834 15.2489C29.1834 14.4716 28.5527 13.8414 27.7754 13.8414ZM21.5122 15.4865C18.1846 15.4865 15.4866 18.1845 15.4866 21.5121C15.4866 24.8398 18.1846 27.5365 21.5122 27.5365C24.8399 27.5365 27.5369 24.8398 27.5369 21.5121C27.5369 18.1845 24.8399 15.4865 21.5122 15.4865ZM21.5122 17.601C23.6721 17.601 25.4233 19.3519 25.4233 21.5121C25.4233 23.672 23.6721 25.4233 21.5122 25.4233C19.352 25.4233 17.601 23.672 17.601 21.5121C17.601 19.3519 19.352 17.601 21.5122 17.601Z" fill="white"/>
</svg>
