<svg width="44" height="44" viewBox="0 0 44 44" fill="none" xmlns="http://www.w3.org/2000/svg">
<g clip-path="url(#clip0_171_400)">
<path opacity="0.1" fill-rule="evenodd" clip-rule="evenodd" d="M0 22.0009C0 9.85059 9.84973 0.000854492 22 0.000854492C34.1503 0.000854492 44 9.85059 44 22.0009C44 34.1511 34.1503 44.0009 22 44.0009C9.84973 44.0009 0 34.1511 0 22.0009Z" fill="white"/>
<path d="M15.3866 13.5883C15.3543 12.1196 14.304 11.0009 12.5984 11.0009C10.8928 11.0009 9.77777 12.1196 9.77777 13.5883C9.77777 15.0267 10.8599 16.1776 12.5337 16.1776H12.5655C14.304 16.1776 15.3866 15.0267 15.3866 13.5883Z" fill="white"/>
<path d="M15.0583 18.2223H10.0726V33.2022H15.0583V18.2223Z" fill="white"/>
<path d="M27.2982 17.8705C30.579 17.8705 33.0386 20.0119 33.0386 24.6131L33.0384 33.2021H28.0529V25.1879C28.0529 23.1749 27.3314 21.8013 25.5266 21.8013C24.1492 21.8013 23.3288 22.7273 22.9684 23.6217C22.8366 23.9422 22.8042 24.3888 22.8042 24.8365V33.2025H17.818C17.818 33.2025 17.8837 19.6283 17.818 18.2226H22.8042V20.3444C23.466 19.3244 24.6511 17.8705 27.2982 17.8705Z" fill="white"/>
</g>
<defs>
<clipPath id="clip0_171_400">
<rect width="44" height="44" fill="white" transform="translate(0 0.000854492)"/>
</clipPath>
</defs>
</svg>
