<svg width="135" height="40" viewBox="0 0 135 40" fill="none" xmlns="http://www.w3.org/2000/svg">
<g clip-path="url(#clip0_171_363)">
<path d="M0 5.33419C0 2.38867 2.38899 0.000854492 5.33597 0.000854492H129.664C132.611 0.000854492 135 2.38867 135 5.33419V34.6675C135 37.613 132.611 40.0009 129.664 40.0009H5.33597C2.38899 40.0009 0 37.613 0 34.6675V5.33419Z" fill="white" fill-opacity="0.1"/>
<path d="M30.5069 20.8156C30.4932 18.4712 31.5559 16.7044 33.702 15.4016C32.5017 13.6828 30.6858 12.7375 28.2921 12.5553C26.0257 12.3766 23.546 13.8753 22.6381 13.8753C21.6785 13.8753 19.4843 12.6172 17.7578 12.6172C14.1948 12.6722 10.4083 15.4566 10.4083 21.1216C10.4083 22.7956 10.7144 24.5247 11.3265 26.3053C12.1451 28.6497 15.0959 34.3937 18.174 34.3009C19.7835 34.2631 20.9219 33.1597 23.0164 33.1597C25.0489 33.1597 26.1013 34.3009 27.8966 34.3009C31.0022 34.2562 33.671 29.0347 34.4483 26.6834C30.2834 24.7206 30.5069 20.9359 30.5069 20.8156ZM26.8923 10.3312C28.636 8.26187 28.4778 6.37812 28.4262 5.70093C26.8855 5.7903 25.104 6.74937 24.0894 7.92843C22.9717 9.19343 22.3148 10.7575 22.4558 12.5209C24.1203 12.6481 25.6405 11.7922 26.8923 10.3312Z" fill="white"/>
<path d="M49.292 28.947H47.5256L46.558 25.8939H43.1948L42.2731 28.947H40.5533L43.8855 18.553H45.9436L49.292 28.947ZM46.2664 24.6131L45.3913 21.899C45.2988 21.6217 45.1253 20.9688 44.8694 19.9409H44.8383C44.7364 20.383 44.5723 21.0359 44.3467 21.899L43.4872 24.6131H46.2664Z" fill="white"/>
<path d="M57.8612 25.1075C57.8612 26.3821 57.5182 27.3897 56.8321 28.1293C56.2177 28.7877 55.4546 29.1165 54.5438 29.1165C53.5607 29.1165 52.8544 28.7619 52.4243 28.0528H52.3932V32.0009H50.7349V23.9196C50.7349 23.1182 50.7139 22.2958 50.6734 21.4523H52.1318L52.2244 22.6402H52.2555C52.8085 21.7452 53.6478 21.2984 54.774 21.2984C55.6545 21.2984 56.3896 21.6475 56.9776 22.3466C57.5672 23.0464 57.8612 23.9664 57.8612 25.1075ZM56.1718 25.1684C56.1718 24.4389 56.0084 23.8376 55.6802 23.3642C55.3216 22.8706 54.8402 22.6238 54.2366 22.6238C53.8274 22.6238 53.4557 22.7613 53.1235 23.0323C52.7906 23.3057 52.5728 23.6626 52.4709 24.1047C52.4196 24.3109 52.3939 24.4796 52.3939 24.6123V25.862C52.3939 26.4071 52.5604 26.8672 52.8933 27.2428C53.2262 27.6185 53.6587 27.806 54.1907 27.806C54.8153 27.806 55.3014 27.5638 55.6491 27.0812C55.9975 26.5977 56.1718 25.9604 56.1718 25.1684Z" fill="white"/>
<path d="M66.4462 25.1075C66.4462 26.3821 66.1031 27.3897 65.4163 28.1293C64.8026 28.7877 64.0396 29.1165 63.1288 29.1165C62.1456 29.1165 61.4394 28.7619 61.01 28.0528H60.9789V32.0009H59.3206V23.9196C59.3206 23.1182 59.2996 22.2958 59.2592 21.4523H60.7176L60.8101 22.6402H60.8412C61.3935 21.7452 62.2328 21.2984 63.3598 21.2984C64.2395 21.2984 64.9745 21.6475 65.5641 22.3466C66.1514 23.0464 66.4462 23.9664 66.4462 25.1075ZM64.7567 25.1684C64.7567 24.4389 64.5926 23.8376 64.2644 23.3642C63.9058 22.8706 63.4259 22.6238 62.8216 22.6238C62.4116 22.6238 62.0406 22.7613 61.7077 23.0323C61.3748 23.3057 61.1578 23.6626 61.0559 24.1047C61.0054 24.3109 60.9789 24.4796 60.9789 24.6123V25.862C60.9789 26.4071 61.1454 26.8672 61.4767 27.2428C61.8096 27.6177 62.2421 27.806 62.7757 27.806C63.4002 27.806 63.8864 27.5638 64.2341 27.0812C64.5825 26.5977 64.7567 25.9604 64.7567 25.1684Z" fill="white"/>
<path d="M76.0445 26.0323C76.0445 26.9164 75.7388 27.6358 75.1251 28.1911C74.4507 28.798 73.5119 29.101 72.3055 29.101C71.1917 29.101 70.2988 28.8854 69.6229 28.4535L70.0071 27.0656C70.7351 27.5077 71.534 27.7295 72.4043 27.7295C73.0289 27.7295 73.515 27.5874 73.8643 27.3046C74.212 27.0219 74.3854 26.6423 74.3854 26.169C74.3854 25.7472 74.2423 25.3919 73.9553 25.1037C73.6698 24.8155 73.193 24.5476 72.5272 24.3C70.7149 23.6213 69.8096 22.627 69.8096 21.3196C69.8096 20.4651 70.1269 19.7646 70.7624 19.2194C71.3955 18.6735 72.2402 18.4009 73.2965 18.4009C74.2384 18.4009 75.0209 18.5657 75.6455 18.8945L75.2309 20.2519C74.6475 19.9333 73.9879 19.7739 73.2498 19.7739C72.6664 19.7739 72.2107 19.9184 71.884 20.2058C71.6079 20.4628 71.4694 20.776 71.4694 21.147C71.4694 21.5578 71.6273 21.8976 71.9446 22.1647C72.2208 22.4115 72.7225 22.6786 73.4505 22.9668C74.3411 23.3268 74.9952 23.7478 75.416 24.2305C75.8353 24.7116 76.0445 25.3138 76.0445 26.0323Z" fill="white"/>
<path d="M81.527 22.7021H79.6991V26.3409C79.6991 27.2664 80.0212 27.7288 80.6667 27.7288C80.9631 27.7288 81.2089 27.703 81.4033 27.6515L81.4492 28.916C81.1225 29.0386 80.6924 29.1003 80.1596 29.1003C79.5047 29.1003 78.9929 28.8996 78.6234 28.4989C78.2555 28.0974 78.0704 27.4242 78.0704 26.4784V22.7005H76.9815V21.4509H78.0704V20.0786L79.6991 19.585V21.4509H81.527V22.7021Z" fill="white"/>
<path d="M89.7742 25.138C89.7742 26.29 89.446 27.2358 88.7911 27.9755C88.1043 28.737 87.1927 29.1165 86.0563 29.1165C84.9611 29.1165 84.0892 28.7518 83.4389 28.0223C82.7887 27.2928 82.4636 26.372 82.4636 25.2622C82.4636 24.1008 82.798 23.1495 83.4693 22.4098C84.139 21.6694 85.0428 21.2992 86.1792 21.2992C87.2743 21.2992 88.1556 21.664 88.8206 22.3942C89.4569 23.1026 89.7742 24.0172 89.7742 25.138ZM88.0537 25.1919C88.0537 24.5007 87.9067 23.9079 87.6088 23.4135C87.2611 22.8152 86.7641 22.5168 86.1201 22.5168C85.4535 22.5168 84.9471 22.816 84.5994 23.4135C84.3015 23.9086 84.1545 24.5108 84.1545 25.2231C84.1545 25.9143 84.3015 26.5071 84.5994 27.0007C84.958 27.599 85.4589 27.8974 86.1053 27.8974C86.7384 27.8974 87.2354 27.5928 87.594 26.9851C87.8997 26.4813 88.0537 25.8823 88.0537 25.1919Z" fill="white"/>
<path d="M95.1643 22.9167C95.0002 22.8863 94.8252 22.8706 94.6416 22.8706C94.0583 22.8706 93.6071 23.0917 93.2898 23.5345C93.0137 23.925 92.8752 24.4186 92.8752 25.0146V28.9471H91.2177L91.2333 23.8126C91.2333 22.9487 91.2123 22.1622 91.171 21.4531H92.6154L92.6761 22.887H92.722C92.897 22.3942 93.1731 21.9974 93.5511 21.6999C93.9206 21.432 94.3196 21.2984 94.7497 21.2984C94.903 21.2984 95.0414 21.3094 95.1643 21.3289V22.9167Z" fill="white"/>
<path d="M102.58 24.8451C102.58 25.1435 102.561 25.395 102.52 25.6004H97.5448C97.5642 26.3408 97.8046 26.9071 98.2666 27.2976C98.6858 27.6467 99.228 27.8216 99.8938 27.8216C100.63 27.8216 101.302 27.7037 101.907 27.467L102.167 28.623C101.46 28.9323 100.626 29.0861 99.6643 29.0861C98.507 29.0861 97.5985 28.744 96.9373 28.0606C96.2777 27.3772 95.9472 26.4595 95.9472 25.3083C95.9472 24.1781 96.2544 23.237 96.8697 22.4864C97.5137 21.6851 98.3841 21.2844 99.4792 21.2844C100.555 21.2844 101.369 21.6851 101.922 22.4864C102.36 23.123 102.58 23.9102 102.58 24.8451ZM100.999 24.4132C101.01 23.9196 100.902 23.4932 100.677 23.1331C100.39 22.67 99.949 22.4388 99.3555 22.4388C98.8134 22.4388 98.3724 22.6645 98.0356 23.1175C97.7595 23.4776 97.5954 23.9095 97.5448 24.4124H100.999V24.4132Z" fill="white"/>
<path d="M42.2625 11.9884H43.1171C43.9425 11.9884 44.4261 12.3592 44.4261 12.9842V12.9926C44.4261 13.5717 43.9175 13.9509 43.1421 13.9509C42.3501 13.9509 41.8457 13.6384 41.779 13.0842L41.7748 13.0509H40.8618L40.866 13.1009C40.9285 14.0926 41.8123 14.7676 43.1421 14.7676C44.4303 14.7676 45.3807 14.0259 45.3807 13.0342V13.0259C45.3807 12.2176 44.8847 11.6467 44.0801 11.5467V11.5134C44.7471 11.3592 45.1973 10.8009 45.1973 10.1342V10.1259C45.1973 9.19672 44.3719 8.55505 43.163 8.55505C41.904 8.55505 41.0828 9.17589 41.0203 10.1926L41.0161 10.2509H41.9124L41.9165 10.1926C41.9874 9.67589 42.4251 9.37172 43.1338 9.37172C43.855 9.37172 44.2719 9.69255 44.2719 10.2259V10.2342C44.2719 10.8092 43.8091 11.2051 43.0921 11.2051H42.2625V11.9884Z" fill="white"/>
<path d="M48.4001 14.7467C48.9837 14.7467 49.4881 14.4467 49.7424 13.9759H49.7632V14.6676H50.6637V11.6467C50.6637 10.7676 49.9842 10.2009 48.9128 10.2009C47.8331 10.2009 47.1786 10.7801 47.1161 11.5342L47.1119 11.5801H47.9624L47.9707 11.5426C48.0457 11.1926 48.3667 10.9467 48.8878 10.9467C49.4464 10.9467 49.7632 11.2384 49.7632 11.7217V12.0509L48.5668 12.1217C47.5288 12.1842 46.9368 12.6509 46.9368 13.4134V13.4217C46.9368 14.2092 47.5246 14.7467 48.4001 14.7467ZM47.8456 13.4009V13.3926C47.8456 13.0217 48.1458 12.7842 48.6877 12.7509L49.7632 12.6842V13.0259C49.7632 13.5967 49.2797 14.0259 48.646 14.0259C48.1625 14.0259 47.8456 13.7842 47.8456 13.4009Z" fill="white"/>
<path d="M55.4589 11.0009V10.2842H52.5533V14.6676H53.4537V11.0009H55.4589Z" fill="white"/>
<path d="M57.1526 16.1259H58.053V13.9301H58.0739C58.3323 14.4384 58.8367 14.7551 59.4579 14.7551C60.5584 14.7551 61.2796 13.8759 61.2796 12.4801V12.4759C61.2796 11.0759 60.5626 10.2009 59.4454 10.2009C58.8201 10.2009 58.3365 10.5176 58.0739 11.0384H58.053V10.2842H57.1526V16.1259ZM59.2119 13.9801C58.5324 13.9801 58.0488 13.3884 58.0488 12.4801V12.4759C58.0488 11.5634 58.5282 10.9717 59.2119 10.9717C59.9206 10.9717 60.3625 11.5426 60.3625 12.4759V12.4801C60.3625 13.4051 59.9206 13.9801 59.2119 13.9801Z" fill="white"/>
<path d="M63.3943 16.1301C64.2531 16.1301 64.7116 15.7801 65.0368 14.8717L66.6709 10.2842H65.7205L64.6158 13.8509H64.5866L63.4819 10.2842H62.5064L64.103 14.6717L64.028 14.8801C63.8779 15.3051 63.6444 15.4176 63.2192 15.4176C63.0983 15.4176 62.9941 15.4009 62.9232 15.3842V16.0884C63.0316 16.1092 63.2192 16.1301 63.3943 16.1301Z" fill="white"/>
<path d="M69.7653 14.7551C70.8408 14.7551 71.5537 14.2092 71.5537 13.3926V13.3842C71.5537 12.8717 71.2369 12.5217 70.6574 12.4051V12.3717C71.1285 12.2634 71.4328 11.8926 71.4328 11.4217V11.4134C71.4328 10.6634 70.8158 10.2009 69.807 10.2009C68.819 10.2009 68.1728 10.6676 68.0686 11.4467L68.0645 11.4801H68.9232L68.9274 11.4509C68.9941 11.1176 69.3234 10.9134 69.7945 10.9134C70.2697 10.9134 70.5532 11.1342 70.5532 11.5092V11.5176C70.5532 11.9092 70.2822 12.1092 69.7528 12.1092H69.1233V12.7634H69.757C70.3656 12.7634 70.6574 12.9634 70.6574 13.3842V13.3926C70.6574 13.7926 70.3156 14.0384 69.7611 14.0384C69.265 14.0384 68.9399 13.8467 68.8398 13.4926L68.8273 13.4509H67.9436L67.9477 13.4884C68.0353 14.2634 68.7398 14.7551 69.7653 14.7551Z" fill="white"/>
<path d="M73.2849 14.6676H74.1728L76.1863 11.5884H76.2238V14.6676H77.1201V10.2842H76.2322L74.2187 13.3509H74.177V10.2842H73.2849V14.6676Z" fill="white"/>
<path d="M82.3614 10.2842H78.7137V11.0009H80.0852V14.6676H80.9898V11.0009H82.3614V10.2842Z" fill="white"/>
<path d="M85.7475 14.7551C86.8106 14.7551 87.4901 14.1217 87.6276 13.4259L87.6401 13.3801H86.7814L86.7689 13.4134C86.6563 13.7426 86.302 14.0176 85.7684 14.0176C85.0513 14.0176 84.597 13.5342 84.5803 12.7051H87.686V12.4009C87.686 11.0842 86.9314 10.2009 85.7017 10.2009C84.4719 10.2009 83.6798 11.1176 83.6798 12.4884V12.4926C83.6798 13.8759 84.4594 14.7551 85.7475 14.7551ZM85.7058 10.9384C86.2936 10.9384 86.723 11.3092 86.7939 12.0676H84.5928C84.6762 11.3342 85.1222 10.9384 85.7058 10.9384Z" fill="white"/>
<path d="M92.0738 14.6676H94.0915C95.042 14.6676 95.6339 14.1759 95.6339 13.4092V13.4009C95.6339 12.8634 95.2587 12.4717 94.6918 12.3967V12.3634C95.1128 12.2842 95.438 11.8717 95.438 11.4176V11.4092C95.438 10.7134 94.9211 10.2842 94.0665 10.2842H92.0738V14.6676ZM92.9659 12.0926V10.9509H93.8789C94.3124 10.9509 94.5459 11.1467 94.5459 11.5092V11.5176C94.5459 11.9051 94.2957 12.0926 93.7872 12.0926H92.9659ZM92.9659 14.0009V12.7467H93.8205C94.4125 12.7467 94.7085 12.9426 94.7085 13.3634V13.3717C94.7085 13.7884 94.4333 14.0009 93.9247 14.0009H92.9659Z" fill="white"/>
</g>
<defs>
<clipPath id="clip0_171_363">
<rect width="135" height="40" fill="white" transform="translate(0 0.000854492)"/>
</clipPath>
</defs>
</svg>
