<svg width="135" height="40" viewBox="0 0 135 40" fill="none" xmlns="http://www.w3.org/2000/svg">
<g clip-path="url(#clip0_171_371)">
<path d="M0 5.33419C0 2.38867 2.38899 0.000854492 5.33597 0.000854492H129.664C132.611 0.000854492 135 2.38867 135 5.33419V34.6675C135 37.613 132.611 40.0009 129.664 40.0009H5.33597C2.38899 40.0009 0 37.613 0 34.6675V5.33419Z" fill="white" fill-opacity="0.1"/>
<path fill-rule="evenodd" clip-rule="evenodd" d="M16.8498 7.33423C11.6427 7.33423 9.73813 9.23749 9.73813 14.441V25.5608C9.73813 30.7643 11.6427 32.6676 16.8498 32.6676H27.969C33.1759 32.6676 35.084 30.7643 35.084 25.5608V14.441C35.084 9.23749 33.1794 7.33423 27.9724 7.33423H16.8498Z" fill="url(#paint0_linear_171_371)"/>
<path fill-rule="evenodd" clip-rule="evenodd" d="M20.7939 22.027H21.8114L21.3009 20.8403L20.7939 22.027ZM20.5433 22.625L20.2414 23.3155H19.5541L21.0157 20.0011H21.6097L23.0655 23.3155H22.3598L22.0618 22.625H20.5433ZM31.6035 23.313H32.2678V20.0009H31.6035V23.313ZM28.9595 21.8902H30.184V21.2863H28.9595V20.6074H30.7371V20.0033H28.2954V23.3152H30.801V22.7111H28.9595V21.8902ZM26.32 22.2815L25.5668 20.0009H25.0172L24.2641 22.2815L23.5312 20.0027H22.8145L23.9712 23.3173H24.5283L25.2827 21.1401L26.037 23.3173H26.5991L27.7527 20.0027H27.0546L26.32 22.2815ZM18.54 21.8993C18.54 22.4385 18.2721 22.7266 17.7857 22.7266C17.2965 22.7266 17.0272 22.4301 17.0272 21.8763V20.0031H16.354V21.8993C16.354 22.8321 16.8726 23.367 17.7765 23.367C18.6893 23.367 19.2127 22.8219 19.2127 21.8716V20.0011H18.54V21.8993ZM14.7477 20.0011H15.4206V23.3175H14.7477V21.9706H13.2276V23.3175H12.5543V20.0011H13.2276V21.3388H14.7477V20.0011Z" fill="white"/>
<path fill-rule="evenodd" clip-rule="evenodd" d="M22.411 15.7786C20.0815 15.7786 18.1867 13.8846 18.1867 11.5564H18.7834C18.7834 13.5555 20.4109 15.182 22.411 15.182C24.4111 15.182 26.0386 13.5555 26.0386 11.5564H26.6353C26.6353 13.8846 24.7403 15.7786 22.411 15.7786Z" fill="white"/>
<path d="M48.6178 29.8675L47.4766 26.6957H43.1072L41.9895 29.8675H40.0198L44.2953 18.3988H46.3276L50.6031 29.8675H48.6178ZM46.9842 25.0863L45.9133 21.9769C45.8351 21.7686 45.7257 21.4405 45.585 20.9926C45.4495 20.5446 45.3557 20.2165 45.3036 20.0082C45.1629 20.6488 44.9571 21.3493 44.6861 22.1097L43.6544 25.0863H46.9842Z" fill="white"/>
<path d="M56.0611 30.0238C54.9668 30.0238 54.1175 29.6306 53.513 28.8441H53.4036C53.4765 29.5733 53.513 30.016 53.513 30.1722V33.7113H51.6762V21.2269H53.1613C53.203 21.3884 53.2889 21.7738 53.4192 22.3832H53.513C54.0862 21.5082 54.946 21.0707 56.0924 21.0707C57.1711 21.0707 58.01 21.4613 58.6093 22.2426C59.2137 23.0238 59.516 24.1202 59.516 25.5316C59.516 26.9431 59.2085 28.0446 58.5936 28.8363C57.984 29.628 57.1398 30.0238 56.0611 30.0238ZM55.6156 22.5707C54.8861 22.5707 54.352 22.7842 54.0132 23.2113C53.6797 23.6384 53.513 24.3207 53.513 25.2582V25.5316C53.513 26.5837 53.6797 27.3467 54.0132 27.8207C54.3467 28.2894 54.8913 28.5238 55.6469 28.5238C56.2826 28.5238 56.7724 28.2634 57.1163 27.7425C57.4603 27.2217 57.6322 26.4795 57.6322 25.516C57.6322 24.5472 57.4603 23.8155 57.1163 23.3207C56.7776 22.8207 56.2774 22.5707 55.6156 22.5707Z" fill="white"/>
<path d="M65.7947 30.0238C64.7004 30.0238 63.851 29.6306 63.2466 28.8441H63.1371C63.2101 29.5733 63.2466 30.016 63.2466 30.1722V33.7113H61.4097V21.2269H62.8948C62.9365 21.3884 63.0225 21.7738 63.1528 22.3832H63.2466C63.8198 21.5082 64.6796 21.0707 65.826 21.0707C66.9046 21.0707 67.7436 21.4613 68.3428 22.2426C68.9473 23.0238 69.2495 24.1202 69.2495 25.5316C69.2495 26.9431 68.9421 28.0446 68.3272 28.8363C67.7175 29.628 66.8733 30.0238 65.7947 30.0238ZM65.3492 22.5707C64.6196 22.5707 64.0855 22.7842 63.7468 23.2113C63.4133 23.6384 63.2466 24.3207 63.2466 25.2582V25.5316C63.2466 26.5837 63.4133 27.3467 63.7468 27.8207C64.0803 28.2894 64.6248 28.5238 65.3804 28.5238C66.0162 28.5238 66.506 28.2634 66.8499 27.7425C67.1938 27.2217 67.3658 26.4795 67.3658 25.516C67.3658 24.5472 67.1938 23.8155 66.8499 23.3207C66.5112 22.8207 66.0109 22.5707 65.3492 22.5707Z" fill="white"/>
<path d="M76.0129 23.6722H80.2181V29.4066C79.5302 29.6306 78.8684 29.7894 78.2327 29.8832C77.6022 29.9769 76.9196 30.0238 76.1848 30.0238C74.4548 30.0238 73.1208 29.5134 72.1828 28.4925C71.2449 27.4665 70.7759 26.0212 70.7759 24.1566C70.7759 22.3181 71.3048 20.8806 72.3626 19.8441C73.4204 18.8024 74.8769 18.2816 76.732 18.2816C77.9253 18.2816 79.056 18.5108 80.1243 18.9691L79.4677 20.5238C78.5401 20.0967 77.6126 19.8832 76.6851 19.8832C75.4657 19.8832 74.5017 20.266 73.793 21.0316C73.0843 21.7972 72.73 22.8441 72.73 24.1722C72.73 25.5681 73.0479 26.6306 73.6836 27.3597C74.3245 28.0837 75.2443 28.4457 76.4428 28.4457C77.0472 28.4457 77.6934 28.3702 78.3812 28.2191V25.2738H76.0129V23.6722Z" fill="white"/>
<path d="M87.9428 29.8675L87.5754 28.6644H87.5129C87.096 29.1905 86.6766 29.5498 86.2545 29.7425C85.8324 29.93 85.2905 30.0238 84.6287 30.0238C83.7793 30.0238 83.1149 29.7946 82.6355 29.3363C82.1613 28.878 81.9242 28.2295 81.9242 27.391C81.9242 26.5004 82.2551 25.8285 82.9169 25.3754C83.5787 24.9222 84.587 24.6748 85.9418 24.6332L87.4347 24.5863V24.1254C87.4347 23.5733 87.3045 23.1618 87.0439 22.891C86.7886 22.6149 86.39 22.4769 85.848 22.4769C85.4051 22.4769 84.9804 22.542 84.574 22.6722C84.1675 22.8024 83.7767 22.9561 83.4015 23.1332L82.8075 21.8207C83.2764 21.5759 83.7897 21.391 84.3473 21.266C84.9049 21.1358 85.4312 21.0707 85.9262 21.0707C87.0257 21.0707 87.8542 21.3103 88.4118 21.7894C88.9746 22.2686 89.256 23.0212 89.256 24.0472V29.8675H87.9428ZM85.2071 28.6175C85.8741 28.6175 86.4082 28.4327 86.8094 28.0629C87.2159 27.6879 87.4191 27.1644 87.4191 26.4925V25.7426L86.3092 25.7894C85.4442 25.8207 84.8137 25.9665 84.4176 26.2269C84.0268 26.4821 83.8314 26.8754 83.8314 27.4066C83.8314 27.792 83.946 28.0915 84.1753 28.305C84.4046 28.5134 84.7485 28.6175 85.2071 28.6175Z" fill="white"/>
<path d="M93.4165 29.8675H91.5796V17.7113H93.4165V29.8675Z" fill="white"/>
<path d="M97.6473 29.8675H95.8105V17.7113H97.6473V29.8675Z" fill="white"/>
<path d="M103.817 30.0238C102.472 30.0238 101.42 29.6332 100.659 28.8519C99.9032 28.0655 99.5254 26.9847 99.5254 25.6097C99.5254 24.1983 99.8771 23.0889 100.581 22.2816C101.284 21.4743 102.251 21.0707 103.48 21.0707C104.622 21.0707 105.523 21.417 106.185 22.1097C106.847 22.8024 107.178 23.7556 107.178 24.9691V25.9613H101.417C101.443 26.7998 101.67 27.4457 102.097 27.8988C102.524 28.3467 103.126 28.5707 103.903 28.5707C104.413 28.5707 104.887 28.5238 105.325 28.43C105.768 28.3311 106.242 28.1696 106.748 27.9457V29.4379C106.3 29.6514 105.846 29.8024 105.388 29.891C104.929 29.9795 104.405 30.0238 103.817 30.0238ZM103.48 22.4613C102.897 22.4613 102.428 22.6462 102.074 23.016C101.724 23.3858 101.516 23.9248 101.448 24.6332H105.372C105.362 23.9196 105.19 23.3806 104.856 23.016C104.523 22.6462 104.064 22.4613 103.48 22.4613Z" fill="white"/>
<path d="M113.409 21.0707C113.779 21.0707 114.084 21.0967 114.324 21.1488L114.144 22.8597C113.884 22.7972 113.613 22.766 113.331 22.766C112.597 22.766 112 23.0056 111.541 23.4847C111.088 23.9639 110.861 24.5863 110.861 25.3519V29.8675H109.024V21.2269H110.463L110.705 22.7504H110.799C111.085 22.2347 111.458 21.8259 111.917 21.5238C112.38 21.2217 112.878 21.0707 113.409 21.0707Z" fill="white"/>
<path d="M114.381 21.2269H116.382L118.141 26.1254C118.406 26.8233 118.583 27.4795 118.672 28.0941H118.735C118.781 27.8077 118.867 27.4613 118.993 27.055C119.118 26.6436 119.779 24.7009 120.978 21.2269H122.963L119.266 31.016C118.594 32.8129 117.474 33.7113 115.905 33.7113C115.499 33.7113 115.103 33.667 114.717 33.5785V32.1254C114.993 32.1879 115.308 32.2191 115.663 32.2191C116.549 32.2191 117.171 31.7061 117.531 30.68L117.851 29.8675L114.381 21.2269Z" fill="white"/>
<path d="M45.8469 11.2709C45.8469 12.2006 45.6137 12.9232 45.1473 13.4388C44.6835 13.9545 44.0256 14.2123 43.1737 14.2123C42.3113 14.2123 41.6482 13.9571 41.1844 13.4467C40.7232 12.9336 40.4926 12.2058 40.4926 11.2631C40.4926 10.3204 40.7245 9.5964 41.1883 9.09119C41.6547 8.58598 42.3191 8.33337 43.1815 8.33337C44.0309 8.33337 44.6874 8.58988 45.1512 9.10291C45.615 9.61593 45.8469 10.3386 45.8469 11.2709ZM41.4853 11.2709C41.4853 11.974 41.6273 12.5079 41.9113 12.8724C42.1953 13.2344 42.6161 13.4154 43.1737 13.4154C43.7286 13.4154 44.1468 13.2357 44.4282 12.8763C44.7122 12.517 44.8542 11.9818 44.8542 11.2709C44.8542 10.5704 44.7135 10.0391 44.4321 9.67712C44.1533 9.31515 43.7364 9.13416 43.1815 9.13416C42.6213 9.13416 42.1979 9.31515 41.9113 9.67712C41.6273 10.0391 41.4853 10.5704 41.4853 11.2709Z" fill="white"/>
<path d="M49.0477 14.1342H48.1136V9.224H46.4331V8.42322H50.7282V9.224H49.0477V14.1342Z" fill="white"/>
<path d="M55.9925 14.1342H54.8943L52.5416 11.2396V14.1342H51.6075V8.42322H52.5416V11.1888L54.8552 8.42322H55.8791L53.5733 11.181L55.9925 14.1342Z" fill="white"/>
<path d="M60.5338 10.1498C60.5338 10.7461 60.3384 11.2032 59.9476 11.5209C59.5567 11.8386 59.0005 11.9974 58.2788 11.9974H57.6847V14.1342H56.7507V8.42322H58.396C59.1099 8.42322 59.644 8.56905 59.9984 8.86072C60.3553 9.15238 60.5338 9.58207 60.5338 10.1498ZM57.6847 11.2123H58.1811C58.6605 11.2123 59.0122 11.1289 59.2363 10.9623C59.4603 10.7956 59.5724 10.5352 59.5724 10.181C59.5724 9.85291 59.4721 9.60811 59.2714 9.44666C59.0708 9.2852 58.7582 9.20447 58.3335 9.20447H57.6847V11.2123Z" fill="white"/>
<path d="M66.7478 11.2709C66.7478 12.2006 66.5146 12.9232 66.0482 13.4388C65.5845 13.9545 64.9266 14.2123 64.0746 14.2123C63.2122 14.2123 62.5491 13.9571 62.0853 13.4467C61.6242 12.9336 61.3936 12.2058 61.3936 11.2631C61.3936 10.3204 61.6255 9.5964 62.0892 9.09119C62.5556 8.58598 63.22 8.33337 64.0824 8.33337C64.9318 8.33337 65.5884 8.58988 66.0521 9.10291C66.5159 9.61593 66.7478 10.3386 66.7478 11.2709ZM62.3863 11.2709C62.3863 11.974 62.5283 12.5079 62.8123 12.8724C63.0963 13.2344 63.517 13.4154 64.0746 13.4154C64.6296 13.4154 65.0477 13.2357 65.3291 12.8763C65.6131 12.517 65.7551 11.9818 65.7551 11.2709C65.7551 10.5704 65.6144 10.0391 65.333 9.67712C65.0542 9.31515 64.6374 9.13416 64.0824 9.13416C63.5222 9.13416 63.0989 9.31515 62.8123 9.67712C62.5283 10.0391 62.3863 10.5704 62.3863 11.2709Z" fill="white"/>
<path d="M67.975 8.42322H68.8309V11.392C68.8309 11.7019 68.823 12.0157 68.8074 12.3334C68.7918 12.6485 68.78 12.862 68.7722 12.974H68.8074L71.7268 8.42322H72.8172V14.1342H71.9574V11.1888C71.9574 10.7383 71.9821 10.1914 72.0317 9.54822H72.0004L69.0693 14.1342H67.975V8.42322ZM70.4254 7.96619C69.873 7.96619 69.4679 7.86723 69.2099 7.66931C68.9546 7.46879 68.8126 7.13546 68.784 6.66931H69.6164C69.632 6.85681 69.6672 7.00264 69.7219 7.10681C69.7792 7.21098 69.86 7.2865 69.9642 7.33337C70.071 7.37764 70.2326 7.39978 70.4488 7.39978C70.7042 7.39978 70.8983 7.34379 71.0312 7.23181C71.164 7.11723 71.2448 6.92973 71.2735 6.66931H72.1215C72.0825 7.11723 71.9248 7.44535 71.6487 7.65369C71.3725 7.86202 70.9647 7.96619 70.4254 7.96619Z" fill="white"/>
<path d="M76.2877 14.1342H75.3536V9.224H73.6731V8.42322H77.9682V9.224H76.2877V14.1342Z" fill="white"/>
<path d="M82.0796 14.1342H78.8475V8.42322H82.0796V9.21228H79.7816V10.767H81.935V11.5482H79.7816V13.3412H82.0796V14.1342Z" fill="white"/>
<path d="M85.3976 8.42322H87.0938C87.8806 8.42322 88.4486 8.5378 88.7977 8.76697C89.1495 8.99613 89.3253 9.35811 89.3253 9.85291C89.3253 10.1862 89.2394 10.4636 89.0674 10.6849C88.8954 10.9063 88.6479 11.0456 88.3249 11.1029V11.142C88.7261 11.2175 89.0205 11.3672 89.2081 11.5912C89.3983 11.8125 89.4934 12.1133 89.4934 12.4935C89.4934 13.0066 89.3136 13.4089 88.9541 13.7006C88.5971 13.9896 88.0995 14.1342 87.4611 14.1342H85.3976V8.42322ZM86.3317 10.7826H87.2306C87.6214 10.7826 87.9067 10.7214 88.0865 10.599C88.2662 10.474 88.3561 10.2631 88.3561 9.96619C88.3561 9.69796 88.2584 9.50395 88.063 9.38416C87.8702 9.26436 87.5628 9.20447 87.1407 9.20447H86.3317V10.7826ZM86.3317 11.5404V13.349H87.3244C87.7152 13.349 88.0096 13.2748 88.2076 13.1263C88.4082 12.9753 88.5085 12.7383 88.5085 12.4154C88.5085 12.1185 88.4069 11.8985 88.2037 11.7552C88.0005 11.612 87.6917 11.5404 87.2775 11.5404H86.3317Z" fill="white"/>
</g>
<defs>
<linearGradient id="paint0_linear_171_371" x1="22.4111" y1="7.33423" x2="22.4111" y2="32.6676" gradientUnits="userSpaceOnUse">
<stop stop-color="#FB6361"/>
<stop offset="1" stop-color="#ED3E45"/>
</linearGradient>
<clipPath id="clip0_171_371">
<rect width="135" height="40" fill="white" transform="translate(0 0.000854492)"/>
</clipPath>
</defs>
</svg>
