<svg width="135" height="40" viewBox="0 0 135 40" fill="none" xmlns="http://www.w3.org/2000/svg">
<g clip-path="url(#clip0_171_352)">
<path d="M0 5.33419C0 2.38867 2.38899 0.000854492 5.33597 0.000854492H129.664C132.611 0.000854492 135 2.38867 135 5.33419V34.6675C135 37.613 132.611 40.0009 129.664 40.0009H5.33597C2.38899 40.0009 0 37.613 0 34.6675V5.33419Z" fill="white" fill-opacity="0.1"/>
<path d="M68.403 21.7314C66.0006 21.7314 64.0156 23.6067 64.0156 26.1779C64.0156 28.728 65.9797 30.6243 68.4032 30.6243C70.8265 30.6243 72.7904 28.749 72.7904 26.1779C72.7904 23.6067 70.8265 21.7314 68.403 21.7314ZM68.403 28.8549C67.0865 28.8549 65.9381 27.7377 65.9381 26.158C65.9381 24.5564 67.0874 23.4611 68.403 23.4611C69.7186 23.4611 70.8679 24.5564 70.8679 26.158C70.8679 27.7377 69.7186 28.8549 68.403 28.8549ZM58.8553 21.7314C56.4318 21.7314 54.4677 23.6067 54.4677 26.1779C54.4677 28.728 56.4318 30.6243 58.8553 30.6243C61.2785 30.6243 63.2426 28.749 63.2426 26.1779C63.2426 23.6067 61.2785 21.7314 58.8551 21.7314H58.8553ZM58.8553 28.8549C57.5385 28.8549 56.3904 27.7377 56.3904 26.158C56.3904 24.5564 57.5397 23.4611 58.8553 23.4611C60.1718 23.4611 61.3202 24.5564 61.3202 26.158C61.3202 27.7377 60.1915 28.8549 58.8553 28.8549ZM47.5107 23.1014V24.9766H51.9394C51.8136 26.0302 51.4595 26.8099 50.9368 27.3371C50.2894 27.9901 49.2865 28.707 47.5107 28.707C44.7733 28.707 42.664 26.4734 42.664 23.7126C42.664 20.9517 44.7745 18.6759 47.5107 18.6759C48.9935 18.6759 50.0597 19.2662 50.8535 20.0251L52.1691 18.6969C51.0615 17.6226 49.5787 16.8009 47.5107 16.8009C43.7705 16.8009 40.6365 19.8982 40.6365 23.6706C40.6365 27.4432 43.7705 30.5405 47.5107 30.5405C49.537 30.5405 51.0418 29.8665 52.2533 28.6013C53.4859 27.3581 53.8619 25.6086 53.8619 24.1969C53.8619 23.7546 53.8205 23.354 53.7572 23.0167L47.5107 23.1014V23.1014ZM93.9334 24.5553C93.5779 23.5647 92.4503 21.7314 90.1932 21.7314C87.9362 21.7314 86.0771 23.5229 86.0771 26.1779C86.0771 28.6641 87.9362 30.6243 90.4023 30.6243C92.4078 30.6243 93.5571 29.381 94.0372 28.6641L92.5544 27.6528C92.0525 28.3907 91.3843 28.8748 90.4023 28.8748C89.4202 28.8748 88.7312 28.4324 88.2917 27.5259L94.1205 25.0606L93.9334 24.5553V24.5553ZM87.9996 26.0521C87.9582 24.3446 89.3163 23.4599 90.2764 23.4599C91.0497 23.4599 91.6765 23.8393 91.9059 24.4085L87.9996 26.0521V26.0521ZM83.257 30.3296H85.1795V17.306H83.257V30.3296V30.3296ZM80.1239 22.722H80.0615C79.6229 22.1948 78.8083 21.7314 77.7629 21.7314C75.5691 21.7314 73.5844 23.6916 73.5844 26.1779C73.5844 28.6641 75.5899 30.6035 77.7629 30.6035C78.8072 30.6035 79.622 30.1399 80.0615 29.5917H80.1239V30.2239C80.1239 31.9314 79.2249 32.8369 77.7837 32.8369C76.6136 32.8369 75.882 31.9732 75.5899 31.2563L73.9191 31.9732C74.399 33.1535 75.6741 34.6074 77.7837 34.6074C80.0397 34.6074 81.9414 33.2584 81.9414 29.9923V22.0051H80.1239V22.722V22.722ZM77.9301 28.8549C76.6136 28.8549 75.5069 27.7377 75.5069 26.179C75.5069 24.6203 76.6145 23.4818 77.9301 23.4818C79.226 23.4818 80.2703 24.6203 80.2703 26.179C80.2694 27.7167 79.2249 28.8549 77.9301 28.8549ZM102.896 17.3062H98.2999V30.3296H100.222V25.3979H102.896C105.027 25.3979 107.116 23.8381 107.116 21.3521C107.116 18.8658 105.027 17.306 102.896 17.306V17.3062ZM102.958 23.5868H100.242V19.1183H102.958C104.379 19.1183 105.215 20.3195 105.215 21.3519C105.195 22.3634 104.38 23.5868 102.958 23.5868ZM114.784 21.7104C113.405 21.7104 111.964 22.3217 111.379 23.7126L113.072 24.4295C113.448 23.7126 114.116 23.4809 114.827 23.4809C115.83 23.4809 116.832 24.0919 116.853 25.1663V25.2932C116.498 25.0825 115.767 24.7869 114.848 24.7869C113.009 24.7869 111.149 25.8195 111.149 27.7167C111.149 29.4659 112.654 30.5825 114.325 30.5825C115.621 30.5825 116.33 29.9923 116.769 29.2973H116.831V30.3089H118.69V25.3139C118.67 23.0174 116.978 21.7102 114.784 21.7102V21.7104ZM114.555 28.8339C113.928 28.8339 113.05 28.5174 113.05 27.7386C113.05 26.727 114.136 26.3477 115.076 26.3477C115.912 26.3477 116.309 26.5374 116.831 26.79C116.685 27.9913 115.661 28.8339 114.555 28.8339V28.8339ZM125.397 22.0062L123.204 27.6327H123.141L120.864 22.006H118.796L122.222 29.8873L120.279 34.2919H122.285L127.528 22.006H125.397L125.397 22.0062ZM108.182 30.3296H110.105V17.306H108.182V30.3296Z" fill="white"/>
<path d="M46.4454 11.2019V13.1358H45.6461V12.0009H41.9707V13.1358H41.1713V11.2019H41.769C41.9682 10.9232 42.1151 10.5225 42.2097 9.99981C42.3043 9.47217 42.3516 8.89972 42.3516 8.28248V6.65475H45.8552V11.2019H46.4454ZM45.0186 11.2019V7.45368H43.1809V8.42435C43.1809 8.98186 43.136 9.49955 43.0464 9.97741C42.9617 10.4553 42.8322 10.8635 42.6579 11.2019H45.0186Z" fill="white"/>
<path d="M49.8372 12.1203C49.3193 12.1203 48.8487 11.9984 48.4253 11.7545C48.002 11.5056 47.6683 11.1671 47.4243 10.739C47.1853 10.3109 47.0657 9.84052 47.0657 9.32781C47.0657 8.8151 47.1853 8.34719 47.4243 7.92408C47.6683 7.49599 48.002 7.1575 48.4253 6.90861C48.8487 6.65972 49.3193 6.53528 49.8372 6.53528C50.3552 6.53528 50.8233 6.65972 51.2417 6.90861C51.665 7.1575 51.9986 7.49599 52.2427 7.92408C52.4867 8.34719 52.6087 8.8151 52.6087 9.32781C52.6087 9.84052 52.4867 10.3109 52.2427 10.739C52.0036 11.1671 51.6724 11.5056 51.2491 11.7545C50.8258 11.9984 50.3552 12.1203 49.8372 12.1203ZM49.8372 11.3214C50.1908 11.3214 50.5145 11.2368 50.8084 11.0675C51.1022 10.8983 51.3338 10.6643 51.5031 10.3657C51.6724 10.062 51.7571 9.71608 51.7571 9.32781C51.7571 8.93955 51.6724 8.59608 51.5031 8.29741C51.3338 7.99377 51.1022 7.75732 50.8084 7.58808C50.5145 7.41883 50.1908 7.33421 49.8372 7.33421C49.4836 7.33421 49.1599 7.41883 48.8661 7.58808C48.5722 7.75732 48.3382 7.99377 48.1639 8.29741C47.9945 8.59608 47.9099 8.93955 47.9099 9.32781C47.9099 9.71608 47.9945 10.062 48.1639 10.3657C48.3382 10.6643 48.5722 10.8983 48.8661 11.0675C49.1599 11.2368 49.4836 11.3214 49.8372 11.3214Z" fill="white"/>
<path d="M56.0168 12.1203C55.4989 12.1203 55.0258 11.9984 54.5975 11.7545C54.1692 11.5106 53.833 11.1746 53.589 10.7465C53.3449 10.3184 53.2229 9.8455 53.2229 9.32781C53.2229 8.81012 53.3449 8.33723 53.589 7.90915C53.833 7.48106 54.1692 7.14506 54.5975 6.90115C55.0258 6.65723 55.4989 6.53528 56.0168 6.53528C56.4202 6.53528 56.7863 6.60995 57.115 6.75928C57.4487 6.90861 57.7425 7.12515 57.9965 7.40888L57.3989 7.98381C57.2146 7.76479 57.0104 7.60301 56.7863 7.49848C56.5622 7.38897 56.3057 7.33421 56.0168 7.33421C55.6583 7.33421 55.3296 7.41635 55.0308 7.58061C54.7369 7.74488 54.5029 7.97883 54.3285 8.28248C54.1542 8.58115 54.0671 8.92959 54.0671 9.32781C54.0671 9.72603 54.1542 10.077 54.3285 10.3806C54.5029 10.6793 54.7369 10.9107 55.0308 11.075C55.3296 11.2393 55.6583 11.3214 56.0168 11.3214C56.6145 11.3214 57.1225 11.0725 57.5408 10.5747L58.1459 11.1571C57.8869 11.4608 57.5757 11.6972 57.2121 11.8665C56.8485 12.0357 56.4501 12.1203 56.0168 12.1203Z" fill="white"/>
<path d="M60.1632 7.45368H58.6692V6.65475H62.494V7.45368H60.9999V12.0009H60.1632V7.45368Z" fill="white"/>
<path d="M63.8792 12.1203C63.6949 12.1203 63.5381 12.088 63.4086 12.0233V11.2094C63.5729 11.299 63.7223 11.3438 63.8568 11.3438C63.9913 11.3438 64.0983 11.3189 64.178 11.2691C64.2577 11.2144 64.3299 11.1148 64.3947 10.9705L64.5814 10.5822L62.8035 6.65475H63.7373L64.9848 9.61901H65.0296L66.2847 6.65475H67.2185L65.1716 11.1497C65.0222 11.4832 64.8404 11.7296 64.6262 11.8889C64.4171 12.0432 64.1681 12.1203 63.8792 12.1203Z" fill="white"/>
<path d="M67.9438 6.65475H71.9255V12.0009H71.0888V7.45368H68.7805V12.0009H67.9438V6.65475Z" fill="white"/>
<path d="M73.1453 6.65475H73.982V8.87235H76.4621V6.65475H77.2914V12.0009H76.4621V9.66381H73.982V12.0009H73.1453V6.65475Z" fill="white"/>
<path d="M80.9442 12.1203C80.4263 12.1203 79.9557 11.9984 79.5323 11.7545C79.109 11.5056 78.7753 11.1671 78.5313 10.739C78.2923 10.3109 78.1727 9.84052 78.1727 9.32781C78.1727 8.8151 78.2923 8.34719 78.5313 7.92408C78.7753 7.49599 79.109 7.1575 79.5323 6.90861C79.9557 6.65972 80.4263 6.53528 80.9442 6.53528C81.4622 6.53528 81.9303 6.65972 82.3487 6.90861C82.772 7.1575 83.1057 7.49599 83.3497 7.92408C83.5937 8.34719 83.7157 8.8151 83.7157 9.32781C83.7157 9.84052 83.5937 10.3109 83.3497 10.739C83.1106 11.1671 82.7795 11.5056 82.3561 11.7545C81.9328 11.9984 81.4622 12.1203 80.9442 12.1203ZM80.9442 11.3214C81.2978 11.3214 81.6216 11.2368 81.9154 11.0675C82.2092 10.8983 82.4408 10.6643 82.6101 10.3657C82.7795 10.062 82.8641 9.71608 82.8641 9.32781C82.8641 8.93955 82.7795 8.59608 82.6101 8.29741C82.4408 7.99377 82.2092 7.75732 81.9154 7.58808C81.6216 7.41883 81.2978 7.33421 80.9442 7.33421C80.5906 7.33421 80.2669 7.41883 79.9731 7.58808C79.6793 7.75732 79.4452 7.99377 79.2709 8.29741C79.1016 8.59608 79.0169 8.93955 79.0169 9.32781C79.0169 9.71608 79.1016 10.062 79.2709 10.3657C79.4452 10.6643 79.6793 10.8983 79.9731 11.0675C80.2669 11.2368 80.5906 11.3214 80.9442 11.3214Z" fill="white"/>
<path d="M86.4227 6.65475H88.4322C88.7161 6.65475 88.9776 6.71697 89.2166 6.84141C89.4606 6.96586 89.6549 7.13759 89.7993 7.35661C89.9437 7.57563 90.0159 7.81706 90.0159 8.08088C90.0159 8.3447 89.9487 8.57368 89.8142 8.76781C89.6848 8.96195 89.5129 9.10879 89.2988 9.20835V9.25315C89.5677 9.34772 89.7844 9.50452 89.9487 9.72355C90.118 9.94257 90.2027 10.1989 90.2027 10.4926C90.2027 10.7863 90.1255 11.0476 89.9711 11.2766C89.8217 11.5056 89.6175 11.6848 89.3585 11.8142C89.1046 11.9387 88.8257 12.0009 88.5219 12.0009H86.4227V6.65475ZM88.3949 8.89475C88.6339 8.89475 88.8257 8.82008 88.9701 8.67075C89.1195 8.52141 89.1942 8.34968 89.1942 8.15555C89.1942 7.96141 89.122 7.79217 88.9776 7.64781C88.8381 7.49848 88.6538 7.42381 88.4247 7.42381H87.2594V8.89475H88.3949ZM88.5219 11.2243C88.7759 11.2243 88.9776 11.1447 89.127 10.9854C89.2814 10.8261 89.3585 10.6419 89.3585 10.4329C89.3585 10.2188 89.2789 10.0347 89.1195 9.88035C88.9651 9.72106 88.7559 9.64141 88.492 9.64141H87.2594V11.2243H88.5219Z" fill="white"/>
<path d="M28.4654 24.2895C31.6618 22.519 34.0853 21.1701 34.2941 21.0653C34.9621 20.7068 35.6523 19.7582 34.2941 19.0214C33.8556 18.7898 31.4946 17.4826 28.4654 15.7972L24.2663 20.0748L28.4651 24.2895H28.4654Z" fill="#FFD900"/>
<path d="M24.2662 20.0748L10.8952 33.6677C11.2089 33.7097 11.5632 33.6257 11.9811 33.394C12.8582 32.9099 22.1554 27.7884 28.4655 24.2905L24.2662 20.0748V20.0748Z" fill="#F43249"/>
<path d="M24.2662 20.0748L28.465 15.818C28.465 15.818 12.9216 7.26181 11.9809 6.75694C11.627 6.54466 11.2299 6.4819 10.8746 6.54466L24.2662 20.0745V20.0748Z" fill="#00EE76"/>
<path d="M24.2662 20.0749L10.8744 6.54504C10.3309 6.67172 9.87154 7.15605 9.87154 8.14617V32.066C9.87154 32.9728 10.227 33.6258 10.895 33.6886L24.266 20.0747L24.2662 20.0749Z" fill="#00D3FF"/>
</g>
<defs>
<clipPath id="clip0_171_352">
<rect width="135" height="40" fill="white" transform="translate(0 0.000854492)"/>
</clipPath>
</defs>
</svg>
