<svg width="44" height="44" viewBox="0 0 44 44" fill="none" xmlns="http://www.w3.org/2000/svg">
<path opacity="0.1" fill-rule="evenodd" clip-rule="evenodd" d="M0 22.0009C0 9.85059 9.84974 0.000854492 22 0.000854492C34.1503 0.000854492 44 9.85059 44 22.0009C44 34.1511 34.1503 44.0009 22 44.0009C9.84974 44.0009 0 34.1511 0 22.0009Z" fill="white"/>
<path fill-rule="evenodd" clip-rule="evenodd" d="M11.9445 12.3143C9.96395 12.4124 8.37304 13.9632 8.24451 15.942C8.12136 17.8378 8 20.1705 8 22.0009C8 23.8312 8.12136 26.1639 8.24451 28.0597C8.37304 30.0385 9.96395 31.5893 11.9445 31.6874C14.8124 31.8295 18.9115 32.0009 22 32.0009C25.0885 32.0009 29.1876 31.8295 32.0555 31.6874C34.0361 31.5893 35.627 30.0385 35.7555 28.0597C35.8786 26.1639 36 23.8312 36 22.0009C36 20.1705 35.8786 17.8378 35.7555 15.942C35.627 13.9632 34.0361 12.4124 32.0555 12.3143C29.1876 12.1722 25.0885 12.0009 22 12.0009C18.9115 12.0009 14.8124 12.1722 11.9445 12.3143ZM18.9998 26.0009V18.0009L26.9998 22.0009L18.9998 26.0009Z" fill="white"/>
</svg>
