<svg aria-hidden="true" xmlns="http://www.w3.org/2000/svg">
  <defs>
    <symbol id="kase-logo" width="126" height="36" viewBox="0 0 126 36" fill="none" xmlns="http://www.w3.org/2000/svg">
      <g clip-path="url(#clip0_149_1050)">
        <path fill-rule="evenodd" clip-rule="evenodd" d="M47.7442 0.777466V25.2648L28.5972 35.2313L47.7442 0.777466Z"
              fill="#3CBD0D"/>
        <path fill-rule="evenodd" clip-rule="evenodd" d="M47.7461 0.777466L66.8928 35.231L47.7461 25.2648V0.777466Z"
              fill="#9ED110"/>
        <path fill-rule="evenodd" clip-rule="evenodd" d="M47.7442 25.2649L66.891 35.2312H28.597L47.7442 25.2649Z"
              fill="#038726"/>
        <path fill-rule="evenodd" clip-rule="evenodd"
              d="M70.1644 9.87977C70.1644 2.77688 76.3765 -0.00012207 82.3741 -0.00012207C86.6186 -0.00012207 90.4988 1.01195 94.2604 3.04437L91.5054 8.00223C88.9527 6.82097 85.9948 5.72887 83.1852 5.76698C80.7879 5.79966 75.9359 6.33996 75.9359 9.7813C75.9359 16.5502 95.7199 13.4596 95.7199 25.7718C95.7199 33.7937 89.3423 35.996 82.7052 35.996C78.4722 35.996 73.6875 34.7117 69.7734 33.0697L72.7913 27.64C73.5909 27.972 74.3973 28.2678 75.22 28.535C77.2531 29.1947 80.0489 29.9254 82.1848 29.9254C84.5045 29.9254 89.8469 29.5357 89.8476 26.1161C89.8483 18.885 70.1644 22.1457 70.1644 9.87977Z"
              fill="#1E212B"/>
        <path fill-rule="evenodd" clip-rule="evenodd"
              d="M6.19224 15.2612H11.5509L19.5979 0.781259H26.1824L16.6112 18.0042L26.1824 35.2269H19.5979L11.5511 20.7476H6.19224V35.2313H0V0.777466H6.19224V15.2612Z"
              fill="#1E212B"/>
        <path fill-rule="evenodd" clip-rule="evenodd"
              d="M103.121 35.2318H125.999V29.7428H109.313V20.7494H124.572V15.2604H109.313V6.26652H125.999V0.777466H103.121C103.121 12.2624 103.121 23.7469 103.121 35.2318Z"
              fill="#1E212B"/>
      </g>
      <defs>
        <clipPath id="clip0_149_1050">
          <rect width="126" height="36" fill="white"/>
        </clipPath>
      </defs>
    </symbol>

    <symbol id="search-icon" width="20" height="20" viewBox="0 0 20 20" xmlns="http://www.w3.org/2000/svg">
      <path
        d="M18.4424 17.2591L15.3508 14.1924C16.5508 12.6961 17.132 10.7968 16.9748 8.88517C16.8175 6.9735 15.9338 5.19474 14.5053 3.91462C13.0769 2.63451 11.2123 1.95034 9.29485 2.00281C7.37745 2.05528 5.55302 2.84039 4.1967 4.1967C2.84039 5.55302 2.05528 7.37745 2.00281 9.29485C1.95034 11.2123 2.63451 13.0769 3.91462 14.5054C5.19474 15.9338 6.9735 16.8175 8.88517 16.9748C10.7968 17.132 12.6961 16.5508 14.1924 15.3508L17.2591 18.4174C17.3366 18.4955 17.4287 18.5575 17.5303 18.5998C17.6318 18.6421 17.7407 18.6639 17.8508 18.6639C17.9608 18.6639 18.0697 18.6421 18.1712 18.5998C18.2728 18.5575 18.3649 18.4955 18.4424 18.4174C18.5926 18.262 18.6766 18.0544 18.6766 17.8383C18.6766 17.6221 18.5926 17.4145 18.4424 17.2591V17.2591ZM9.51742 15.3508C8.36369 15.3508 7.23588 15.0086 6.27659 14.3677C5.3173 13.7267 4.56963 12.8156 4.12812 11.7497C3.68661 10.6838 3.57109 9.51095 3.79617 8.37939C4.02125 7.24783 4.57682 6.20843 5.39263 5.39263C6.20843 4.57682 7.24783 4.02125 8.37939 3.79617C9.51095 3.57109 10.6838 3.68661 11.7497 4.12812C12.8156 4.56963 13.7267 5.3173 14.3677 6.27659C15.0086 7.23588 15.3508 8.36369 15.3508 9.51742C15.3508 11.0645 14.7362 12.5482 13.6422 13.6422C12.5482 14.7362 11.0645 15.3508 9.51742 15.3508V15.3508Z"/>
    </symbol>

    <symbol id="bar_chart_line_fill-icon" width="16" height="16" viewBox="0 0 16 16"
            xmlns="http://www.w3.org/2000/svg">
      <path
        d="M11 2C11 1.73478 11.1054 1.48043 11.2929 1.29289C11.4804 1.10536 11.7348 1 12 1H14C14.2652 1 14.5196 1.10536 14.7071 1.29289C14.8946 1.48043 15 1.73478 15 2V14H15.5C15.6326 14 15.7598 14.0527 15.8536 14.1464C15.9473 14.2402 16 14.3674 16 14.5C16 14.6326 15.9473 14.7598 15.8536 14.8536C15.7598 14.9473 15.6326 15 15.5 15H0.5C0.367392 15 0.240215 14.9473 0.146447 14.8536C0.0526784 14.7598 0 14.6326 0 14.5C0 14.3674 0.0526784 14.2402 0.146447 14.1464C0.240215 14.0527 0.367392 14 0.5 14H1V11C1 10.7348 1.10536 10.4804 1.29289 10.2929C1.48043 10.1054 1.73478 10 2 10H4C4.26522 10 4.51957 10.1054 4.70711 10.2929C4.89464 10.4804 5 10.7348 5 11V14H6V7C6 6.73478 6.10536 6.48043 6.29289 6.29289C6.48043 6.10536 6.73478 6 7 6H9C9.26522 6 9.51957 6.10536 9.70711 6.29289C9.89464 6.48043 10 6.73478 10 7V14H11V2Z"/>
    </symbol>

    <symbol id="filter-icon" width="20" height="20" viewBox="0 0 20 20" xmlns="http://www.w3.org/2000/svg">
      <path
        d="M7.5 13.125C7.5 12.9592 7.56585 12.8003 7.68306 12.6831C7.80027 12.5658 7.95924 12.5 8.125 12.5H11.875C12.0408 12.5 12.1997 12.5658 12.3169 12.6831C12.4342 12.8003 12.5 12.9592 12.5 13.125C12.5 13.2908 12.4342 13.4497 12.3169 13.5669C12.1997 13.6842 12.0408 13.75 11.875 13.75H8.125C7.95924 13.75 7.80027 13.6842 7.68306 13.5669C7.56585 13.4497 7.5 13.2908 7.5 13.125ZM5 9.375C5 9.20924 5.06585 9.05027 5.18306 8.93306C5.30027 8.81585 5.45924 8.75 5.625 8.75H14.375C14.5408 8.75 14.6997 8.81585 14.8169 8.93306C14.9342 9.05027 15 9.20924 15 9.375C15 9.54076 14.9342 9.69973 14.8169 9.81694C14.6997 9.93415 14.5408 10 14.375 10H5.625C5.45924 10 5.30027 9.93415 5.18306 9.81694C5.06585 9.69973 5 9.54076 5 9.375ZM2.5 5.625C2.5 5.45924 2.56585 5.30027 2.68306 5.18306C2.80027 5.06585 2.95924 5 3.125 5H16.875C17.0408 5 17.1997 5.06585 17.3169 5.18306C17.4342 5.30027 17.5 5.45924 17.5 5.625C17.5 5.79076 17.4342 5.94973 17.3169 6.06694C17.1997 6.18415 17.0408 6.25 16.875 6.25H3.125C2.95924 6.25 2.80027 6.18415 2.68306 6.06694C2.56585 5.94973 2.5 5.79076 2.5 5.625Z"/>
    </symbol>

    <symbol id="dropdown-arrow-down-icon" width="24" height="24" viewBox="0 0 24 24" xmlns="http://www.w3.org/2000/svg">
      <path
        d="M12.7064 14.8297L16.9464 10.5897C17.0401 10.4967 17.1145 10.3861 17.1653 10.2643C17.216 10.1424 17.2422 10.0117 17.2422 9.8797C17.2422 9.74769 17.216 9.61698 17.1653 9.49512C17.1145 9.37326 17.0401 9.26266 16.9464 9.1697C16.759 8.98345 16.5056 8.87891 16.2414 8.87891C15.9772 8.87891 15.7238 8.98345 15.5364 9.1697L11.9964 12.7097L8.45639 9.1697C8.26903 8.98345 8.01557 8.87891 7.75139 8.87891C7.4872 8.87891 7.23375 8.98345 7.04639 9.1697C6.95371 9.26314 6.88038 9.37395 6.83062 9.49579C6.78085 9.61763 6.75563 9.74809 6.75639 9.8797C6.75563 10.0113 6.78085 10.1418 6.83062 10.2636C6.88038 10.3854 6.95371 10.4963 7.04639 10.5897L11.2864 14.8297C11.3794 14.9234 11.49 14.9978 11.6118 15.0486C11.7337 15.0994 11.8644 15.1255 11.9964 15.1255C12.1284 15.1255 12.2591 15.0994 12.381 15.0486C12.5028 14.9978 12.6134 14.9234 12.7064 14.8297Z"/>
    </symbol>

    <symbol id="file-icon" width="24" height="24" viewBox="0 0 24 24" xmlns="http://www.w3.org/2000/svg">
      <path
        d="M8.25 10.5001C8.05109 10.5001 7.86032 10.5791 7.71967 10.7198C7.57902 10.8604 7.5 11.0512 7.5 11.2501C7.5 11.449 7.57902 11.6398 7.71967 11.7805C7.86032 11.9211 8.05109 12.0001 8.25 12.0001H15.75C15.9489 12.0001 16.1397 11.9211 16.2803 11.7805C16.421 11.6398 16.5 11.449 16.5 11.2501C16.5 11.0512 16.421 10.8604 16.2803 10.7198C16.1397 10.5791 15.9489 10.5001 15.75 10.5001H8.25ZM7.5 14.2501C7.5 14.0512 7.57902 13.8604 7.71967 13.7198C7.86032 13.5791 8.05109 13.5001 8.25 13.5001H15.75C15.9489 13.5001 16.1397 13.5791 16.2803 13.7198C16.421 13.8604 16.5 14.0512 16.5 14.2501C16.5 14.449 16.421 14.6398 16.2803 14.7805C16.1397 14.9211 15.9489 15.0001 15.75 15.0001H8.25C8.05109 15.0001 7.86032 14.9211 7.71967 14.7805C7.57902 14.6398 7.5 14.449 7.5 14.2501ZM7.5 17.2501C7.5 17.0512 7.57902 16.8604 7.71967 16.7198C7.86032 16.5791 8.05109 16.5001 8.25 16.5001H11.25C11.4489 16.5001 11.6397 16.5791 11.7803 16.7198C11.921 16.8604 12 17.0512 12 17.2501C12 17.449 11.921 17.6398 11.7803 17.7805C11.6397 17.9211 11.4489 18.0001 11.25 18.0001H8.25C8.05109 18.0001 7.86032 17.9211 7.71967 17.7805C7.57902 17.6398 7.5 17.449 7.5 17.2501Z"/>
      <path
        d="M14.25 0.00012207H6C5.20435 0.00012207 4.44129 0.316193 3.87868 0.878802C3.31607 1.44141 3 2.20447 3 3.00012V21.0001C3 21.7958 3.31607 22.5588 3.87868 23.1214C4.44129 23.6841 5.20435 24.0001 6 24.0001H18C18.7956 24.0001 19.5587 23.6841 20.1213 23.1214C20.6839 22.5588 21 21.7958 21 21.0001V6.75012L14.25 0.00012207ZM14.25 1.50012V4.50012C14.25 5.09686 14.4871 5.66916 14.909 6.09111C15.331 6.51307 15.9033 6.75012 16.5 6.75012H19.5V21.0001C19.5 21.3979 19.342 21.7795 19.0607 22.0608C18.7794 22.3421 18.3978 22.5001 18 22.5001H6C5.60218 22.5001 5.22064 22.3421 4.93934 22.0608C4.65804 21.7795 4.5 21.3979 4.5 21.0001V3.00012C4.5 2.6023 4.65804 2.22077 4.93934 1.93946C5.22064 1.65816 5.60218 1.50012 6 1.50012H14.25Z"/>
    </symbol>

    <symbol id="plus-icon" width="20" height="20" viewBox="0 0 20 20" xmlns="http://www.w3.org/2000/svg">
      <path
        d="M10 5C10.1658 5 10.3247 5.06585 10.4419 5.18306C10.5592 5.30027 10.625 5.45924 10.625 5.625V9.375H14.375C14.5408 9.375 14.6997 9.44085 14.8169 9.55806C14.9342 9.67527 15 9.83424 15 10C15 10.1658 14.9342 10.3247 14.8169 10.4419C14.6997 10.5592 14.5408 10.625 14.375 10.625H10.625V14.375C10.625 14.5408 10.5592 14.6997 10.4419 14.8169C10.3247 14.9342 10.1658 15 10 15C9.83424 15 9.67527 14.9342 9.55806 14.8169C9.44085 14.6997 9.375 14.5408 9.375 14.375V10.625H5.625C5.45924 10.625 5.30027 10.5592 5.18306 10.4419C5.06585 10.3247 5 10.1658 5 10C5 9.83424 5.06585 9.67527 5.18306 9.55806C5.30027 9.44085 5.45924 9.375 5.625 9.375H9.375V5.625C9.375 5.45924 9.44085 5.30027 9.55806 5.18306C9.67527 5.06585 9.83424 5 10 5Z"/>
    </symbol>

    <symbol id="arrow_down_strong-icon" width="12" height="12" viewBox="0 0 12 12" xmlns="http://www.w3.org/2000/svg">
      <path d="M0 2.25L6.00003 9.75L12 2.25H0Z"/>
    </symbol>

    <symbol id="arrow_right-light" width="20" height="20" viewBox="0 0 20 20" xmlns="http://www.w3.org/2000/svg">
      <path fill-rule="evenodd" clip-rule="evenodd"
            d="M7.13448 5.12659C7.177 5.0867 7.22751 5.05504 7.28312 5.03345C7.33873 5.01185 7.39835 5.00073 7.45856 5.00073C7.51877 5.00073 7.57838 5.01185 7.634 5.03345C7.68961 5.05504 7.74012 5.0867 7.78264 5.12659L13.2755 10.2675C13.3181 10.3073 13.352 10.3546 13.375 10.4066C13.3981 10.4587 13.41 10.5145 13.41 10.5708C13.41 10.6272 13.3981 10.683 13.375 10.735C13.352 10.7871 13.3181 10.8344 13.2755 10.8742L7.78264 16.0151C7.69669 16.0955 7.58011 16.1407 7.45856 16.1407C7.337 16.1407 7.22043 16.0955 7.13448 16.0151C7.04853 15.9347 7.00024 15.8255 7.00024 15.7118C7.00024 15.598 7.04853 15.4889 7.13448 15.4085L12.3042 10.5708L7.13448 5.73322C7.09185 5.69343 7.05803 5.64615 7.03495 5.59411C7.01188 5.54206 7 5.48626 7 5.42991C7 5.37356 7.01188 5.31776 7.03495 5.26571C7.05803 5.21367 7.09185 5.16639 7.13448 5.12659V5.12659Z"/>
    </symbol>

    <symbol id="check2-circle" width="20" height="20" viewBox="0 0 20 20" xmlns="http://www.w3.org/2000/svg">
      <path d="M3.12501 9.9991C3.12482 8.7922 3.44235 7.60651 4.04568 6.56122C4.64901 5.51594 5.51688 4.64791 6.56205 4.04437C7.60721 3.44084 8.79284 3.12307 9.99974 3.12303C11.2066 3.12298 12.3923 3.44065 13.4375 4.0441C13.581 4.12567 13.7509 4.14719 13.9102 4.10394C14.0695 4.0607 14.2052 3.95622 14.2877 3.81329C14.3702 3.67036 14.3928 3.50059 14.3507 3.34103C14.3085 3.18147 14.2049 3.04507 14.0625 2.9616C12.5136 2.06733 10.7129 1.70913 8.93962 1.94255C7.16637 2.17598 5.51969 2.98798 4.25495 4.25263C2.99022 5.51728 2.17811 7.16391 1.94457 8.93714C1.71104 10.7104 2.06912 12.5111 2.96329 14.0601C3.85747 15.6091 5.23776 16.8197 6.89011 17.5043C8.54245 18.1889 10.3745 18.3092 12.1022 17.8464C13.8298 17.3837 15.3565 16.3638 16.4455 14.945C17.5344 13.5261 18.1248 11.7876 18.125 9.9991C18.125 9.83334 18.0592 9.67437 17.942 9.55716C17.8247 9.43995 17.6658 9.3741 17.5 9.3741C17.3343 9.3741 17.1753 9.43995 17.0581 9.55716C16.9409 9.67437 16.875 9.83334 16.875 9.9991C16.875 11.8225 16.1507 13.5711 14.8614 14.8605C13.5721 16.1498 11.8234 16.8741 10 16.8741C8.17665 16.8741 6.42796 16.1498 5.13865 14.8605C3.84934 13.5711 3.12501 11.8225 3.12501 9.9991Z"/>
      <path d="M19.1923 4.19329C19.2504 4.13518 19.2965 4.06619 19.328 3.99027C19.3594 3.91434 19.3756 3.83297 19.3756 3.75079C19.3756 3.66861 19.3594 3.58723 19.328 3.51131C19.2965 3.43539 19.2504 3.3664 19.1923 3.30829C19.1342 3.25018 19.0652 3.20408 18.9893 3.17264C18.9134 3.14119 18.832 3.125 18.7498 3.125C18.6676 3.125 18.5863 3.14119 18.5103 3.17264C18.4344 3.20408 18.3654 3.25018 18.3073 3.30829L9.99981 11.617L6.69231 8.30829C6.6342 8.25018 6.56522 8.20408 6.48929 8.17264C6.41337 8.14119 6.33199 8.125 6.24981 8.125C6.16763 8.125 6.08626 8.14119 6.01033 8.17264C5.93441 8.20408 5.86542 8.25018 5.80731 8.30829C5.7492 8.3664 5.70311 8.43539 5.67166 8.51131C5.64021 8.58723 5.62402 8.66861 5.62402 8.75079C5.62402 8.83297 5.64021 8.91434 5.67166 8.99027C5.70311 9.06619 5.7492 9.13518 5.80731 9.19329L9.55731 12.9433C9.61537 13.0015 9.68434 13.0477 9.76027 13.0792C9.8362 13.1107 9.9176 13.1269 9.99981 13.1269C10.082 13.1269 10.1634 13.1107 10.2394 13.0792C10.3153 13.0477 10.3843 13.0015 10.4423 12.9433L19.1923 4.19329Z"/>
    </symbol>

  </defs>
</svg>
