<svg width="24" height="24" viewBox="0 0 24 24" fill="none" xmlns="http://www.w3.org/2000/svg">
<g clip-path="url(#clip0_191_22460)">
<path d="M0.0112305 12.0009C0.0112305 18.6217 5.37843 23.9889 11.9992 23.9889C18.62 23.9889 23.9872 18.6217 23.9872 12.0009C23.9872 5.38006 18.6202 0.0126953 11.9994 0.0126953C11.9984 0.0126953 11.9973 0.0126953 11.9964 0.0126953C5.37715 0.0126953 0.0113905 5.37862 0.0113905 11.9977C0.0112305 11.9988 0.0112305 11.9997 0.0112305 12.0009" fill="white"/>
<path d="M2.82406 19.3663C1.55334 17.9584 0.907257 15.4048 0.809657 13.5338C0.658617 11.3936 0.950137 9.24533 1.66598 7.22293C1.77414 6.97637 1.66182 6.68869 1.4151 6.58069C1.3879 6.56869 1.35958 6.55941 1.33078 6.55253C4.33958 0.654767 11.5597 -1.68715 17.4575 1.32181C23.3553 4.33077 25.697 11.5508 22.6882 17.4484C19.6997 23.3063 12.5498 25.6631 6.66374 22.7304C6.46262 22.633 6.26758 22.5263 6.07558 22.4256C5.59382 22.1549 5.13238 21.8493 4.6951 21.5114C4.2487 21.1722 3.82998 20.7983 3.44262 20.393C3.32982 20.2832 3.22326 20.1706 3.11958 20.0548L2.97334 19.8871C3.01526 19.7071 2.96374 19.5181 2.83622 19.3842" fill="white"/>
<path d="M0.00820551 12.0008C0.00260551 14.9731 1.10805 17.8402 3.10725 20.0395H3.15909C3.25045 20.0395 3.33285 20.1248 3.36933 20.1919C3.40597 20.2589 3.41205 20.3229 3.44245 20.3808C3.82613 20.7835 4.24085 21.1554 4.68277 21.4931H4.78645C4.92965 21.4931 4.95093 21.5632 5.01493 21.6699C5.09253 21.8026 5.20821 21.9088 5.34709 21.9747C5.50613 22.0317 5.67045 22.0727 5.83765 22.0967C5.94133 22.1179 5.98389 22.124 6.02053 22.2307C6.04085 22.2984 6.05509 22.3677 6.06325 22.4379C6.25525 22.5477 6.45029 22.6543 6.65141 22.7427C6.65141 22.4594 6.45637 22.2247 6.44725 21.9383C6.45189 21.8723 6.45189 21.8061 6.44725 21.7402C6.43205 21.664 6.38933 21.6488 6.36197 21.5848C6.33461 21.5208 6.28581 21.341 6.36197 21.28C6.43813 21.2191 6.57525 21.1978 6.60277 21.0485C6.60885 21.0061 6.60885 20.9629 6.60277 20.9205C6.58533 20.776 6.59877 20.6296 6.64245 20.4909C6.70085 20.3792 6.82197 20.3151 6.94725 20.3295C7.05701 20.3295 7.15445 20.4026 7.25205 20.3631C7.30997 20.3448 7.33733 20.2808 7.39221 20.2624C7.43749 20.2533 7.48405 20.2533 7.52933 20.2624H7.94981C8.05541 20.2528 8.15845 20.225 8.25461 20.1802C8.40389 20.1344 8.44053 20.0613 8.51973 19.9517C8.59893 19.8419 8.66293 19.7963 8.72085 19.7079C8.74213 19.6775 8.77269 19.6499 8.79093 19.6226C8.81317 19.573 8.83253 19.5221 8.84885 19.4703C8.89461 19.3819 9.00421 19.3514 9.03781 19.2509C9.05765 19.1586 9.05765 19.0629 9.03781 18.9706C9.03781 18.8975 8.97077 18.7816 9.00421 18.7146C9.03765 18.6475 9.16869 18.6627 9.22965 18.6627C9.34309 18.6619 9.44757 18.7242 9.50085 18.8242C9.55749 18.8947 9.59157 18.9808 9.59829 19.0711C9.60885 19.1509 9.60885 19.2319 9.59829 19.3119C9.57397 19.4093 9.45813 19.4338 9.41237 19.5221C9.36661 19.6104 9.38805 19.7506 9.33925 19.8543C9.30469 19.9307 9.28805 20.0141 9.29045 20.0981C9.26005 20.2962 9.07717 20.3359 8.90949 20.3296C8.84245 20.3296 8.65653 20.296 8.60469 20.3632C8.55285 20.4303 8.60469 20.6192 8.60469 20.6954C8.59557 20.7631 8.59557 20.8319 8.60469 20.8995C8.63637 20.9907 8.69477 21.0704 8.77237 21.128C8.86869 21.2341 8.98597 21.3192 9.11669 21.3779C9.21861 21.444 9.33253 21.4896 9.45189 21.512C9.57125 21.5242 9.68933 21.5456 9.80533 21.576C9.94437 21.5858 10.0826 21.6031 10.2197 21.6279C10.2997 21.6653 10.3834 21.6939 10.4696 21.7131C10.5234 21.7178 10.5775 21.7178 10.6311 21.7131C10.6808 21.7103 10.7306 21.7103 10.7804 21.7131C10.8725 21.724 10.9655 21.724 11.0576 21.7131C11.1178 21.6858 11.1757 21.6543 11.2314 21.6187C11.292 21.5917 11.3572 21.5763 11.4234 21.573C11.5591 21.5594 11.696 21.5687 11.8287 21.6003C11.9597 21.64 12.1548 21.7071 12.2858 21.6277C12.3498 21.5911 12.3376 21.585 12.368 21.524C12.3994 21.4845 12.434 21.4479 12.4717 21.4143C12.5114 21.3776 12.6028 21.3015 12.6058 21.2466C12.6088 21.1917 12.5692 21.1765 12.554 21.1522C12.49 21.0578 12.4199 20.9663 12.362 20.8688C12.2554 20.7426 12.1792 20.5935 12.1396 20.433C12.1255 20.3247 12.1349 20.2144 12.1669 20.1099C12.2064 19.9011 12.2188 19.688 12.2036 19.4762C12.222 19.3499 12.2136 19.2211 12.1792 19.0983C12.1488 19.0282 12.0879 18.9794 12.0725 18.9002C12.0557 18.7309 12.0557 18.5605 12.0725 18.3912C12.0725 18.2632 12.0116 17.992 12.1578 17.9432C12.3802 17.864 12.496 18.0712 12.4869 18.248C12.5036 18.3855 12.528 18.5218 12.56 18.6563C12.5432 18.7725 12.5432 18.8906 12.56 19.0067C12.6028 19.1165 12.7154 19.1651 12.7703 19.2597C12.7932 19.3661 12.7932 19.4763 12.7703 19.5827C12.7634 19.6981 12.7855 19.8133 12.8343 19.9179C12.8944 20.0226 12.9445 20.1328 12.9836 20.2471C13.0048 20.4415 13.0048 20.6376 12.9836 20.8322C12.9613 21.0247 13.0101 21.2186 13.1207 21.3776C13.1938 21.4629 13.2244 21.4843 13.1207 21.5544C12.9645 21.6515 12.8004 21.7351 12.6301 21.8043C12.5061 21.8423 12.3858 21.8912 12.2706 21.9506C12.1746 21.9951 12.0714 22.0219 11.9658 22.0298C11.8226 22.0664 11.6794 22.112 11.5423 22.1547C11.4844 22.176 11.3138 22.1547 11.2924 22.2218C11.3732 22.3432 11.5124 22.4128 11.658 22.4047C11.8047 22.4163 11.9488 22.4514 12.0845 22.5083C12.1936 22.5544 12.2962 22.6149 12.3893 22.6882C12.4965 22.7976 12.6445 22.8573 12.7976 22.8527C12.9604 22.8394 13.1242 22.8539 13.2821 22.8954C13.4757 22.9823 13.681 23.0397 13.8916 23.0661H14.1964C14.3823 23.0477 14.5698 23.0539 14.754 23.0843C15.0032 23.129 15.2567 23.1463 15.5096 23.1362H15.7077C15.8901 23.105 16.0773 23.1186 16.2532 23.1759L16.3202 23.2186C18.3306 22.4354 20.0906 21.121 21.4122 19.4155C21.329 19.3648 21.2583 19.296 21.205 19.2144C21.1778 19.16 21.1602 19.1011 21.1532 19.0407C21.1068 18.9448 21.0768 18.8418 21.0648 18.7359C21.0826 18.6227 21.1069 18.5109 21.138 18.4007C21.138 18.297 21.1623 18.0563 21.0679 17.9863C20.9735 17.9162 20.8698 17.9589 20.7997 17.9435C20.7234 17.9184 20.6508 17.8835 20.5834 17.8399C20.4036 17.7331 20.4127 17.6266 20.4797 17.4498C20.5133 17.3584 20.5194 17.2669 20.5437 17.1755C20.5836 17.0647 20.6423 16.9616 20.7175 16.8707C20.7944 16.7303 20.8471 16.5778 20.8728 16.4197C20.886 16.3429 20.9162 16.2699 20.9612 16.2064C20.9855 16.1851 21.0252 16.1667 21.0525 16.1455C21.1312 16.0459 21.192 15.9336 21.2324 15.8133C21.2877 15.7031 21.3575 15.6007 21.4396 15.5085C21.5615 15.3805 21.6773 15.2555 21.79 15.1154C21.8631 15.0301 21.9576 14.9661 22.0245 14.8839C22.0916 14.8016 22.0976 14.7162 22.1495 14.6461C22.213 14.5832 22.2655 14.5101 22.3048 14.4298C22.421 14.2104 22.5082 13.9768 22.5639 13.7351C22.5791 13.5027 22.5791 13.2696 22.5639 13.0373C22.5621 12.8939 22.5468 12.7511 22.5181 12.6107C22.4976 12.5175 22.4626 12.428 22.4144 12.3456C22.3861 12.3096 22.3636 12.2696 22.3474 12.2267C22.3474 12.1384 22.3717 12.0378 22.3474 11.9403C22.3157 11.8727 22.2676 11.8139 22.2072 11.7696C22.108 11.6735 22.0144 11.5717 21.9269 11.4648C21.8749 11.3679 21.833 11.2658 21.802 11.16C21.7338 11.0587 21.6359 10.981 21.5216 10.9376C21.4472 10.8848 21.3564 10.8611 21.2656 10.8706C21.1248 10.8733 20.9895 10.8155 20.8938 10.7122C20.8226 10.6552 20.761 10.5872 20.7109 10.5111C20.6887 10.4602 20.6623 10.4112 20.6317 10.3648C20.557 10.2651 20.4488 10.1959 20.3269 10.1698H20.2172C20.1442 10.1757 20.0708 10.1757 19.9978 10.1698C19.9095 10.1698 19.821 10.1362 19.7296 10.124C19.6485 10.1179 19.5671 10.1179 19.4858 10.124H19.309C19.1908 10.1112 19.0712 10.1184 18.9556 10.1453C18.6684 10.3002 18.3711 10.4355 18.0658 10.5506C17.892 10.5903 17.7093 10.5688 17.5356 10.6024C17.464 10.616 17.3906 10.616 17.3192 10.6024C17.2004 10.5658 17.0815 10.5111 16.9628 10.5811C16.9109 10.6115 16.8714 10.6664 16.8256 10.697C16.7799 10.7274 16.7098 10.7488 16.658 10.7853C16.573 10.8469 16.4989 10.9219 16.4386 11.0077C16.3472 11.1357 16.2466 11.2546 16.1522 11.3733C16.1048 11.4635 16.0509 11.5501 15.9908 11.6323C15.9207 11.7085 15.7927 11.7176 15.7104 11.7847C15.6282 11.8517 15.6007 12.001 15.4666 12.0315C15.3815 12.0467 15.298 12.0691 15.2167 12.0986C15.1375 12.1259 15.0338 12.1352 14.982 12.2053C14.8876 12.3363 14.8845 12.5101 14.7565 12.6258C14.6285 12.7415 14.3391 12.9914 14.4 13.2565C14.4488 13.4759 14.6316 13.6527 14.7048 13.8659C14.7348 13.9437 14.7412 14.0285 14.7231 14.1098C14.6991 14.1591 14.6788 14.2099 14.6621 14.2621C14.6682 14.3474 14.6682 14.4328 14.6621 14.5181C14.6292 14.5955 14.5893 14.6701 14.5432 14.7405C14.4762 14.8563 14.4213 14.9813 14.3573 15.1C14.2916 15.2352 14.1685 15.3338 14.0221 15.3682C13.977 15.3786 13.9301 15.3786 13.885 15.3682C13.8349 15.3495 13.7797 15.3495 13.7296 15.3682C13.6383 15.3947 13.5594 15.4531 13.5072 15.5327C13.5016 15.6341 13.5016 15.7359 13.5072 15.8375C13.4946 15.9608 13.4616 16.0813 13.4098 16.1939C13.3183 16.3299 13.1844 16.4317 13.0288 16.4834C12.9037 16.5167 12.7845 16.5691 12.6754 16.6387C12.5908 16.7335 12.5284 16.8459 12.4925 16.9679C12.4224 17.1141 12.258 17.1447 12.13 17.233C12.0546 17.3119 11.9584 17.3679 11.8527 17.3944C11.6736 17.4173 11.4924 17.4173 11.3133 17.3944C11.1975 17.3792 11.097 17.3031 10.9812 17.2816C10.8653 17.2603 10.716 17.2115 10.6764 17.0744C10.6504 16.9611 10.6504 16.8434 10.6764 16.7301C10.7037 16.6418 10.8165 16.6264 10.8896 16.5839C10.9823 16.5184 11.0853 16.469 11.1944 16.4376C11.2511 16.4357 11.3072 16.4275 11.3621 16.4133C11.4975 16.3304 11.6197 16.2277 11.7247 16.1085C11.8207 16.0363 11.878 15.9239 11.88 15.8037C11.9015 15.6941 11.8898 15.5807 11.8464 15.4776C11.6829 15.4693 11.5189 15.4826 11.3589 15.5173C11.2026 15.5583 11.0421 15.5818 10.8805 15.5874C10.7232 15.6087 10.565 15.5544 10.454 15.4411C10.3503 15.2949 10.454 15.0571 10.2802 14.9506C10.1229 15.1178 9.98293 15.3005 9.86277 15.496C9.76837 15.6789 9.69829 15.8434 9.48789 15.9043C9.39349 15.9256 8.91797 15.9744 8.95157 15.7611C8.95157 15.685 9.11301 15.6179 9.15269 15.5661C9.28245 15.42 9.36901 15.2407 9.40261 15.048C9.42997 14.8927 9.49093 14.8927 9.60981 14.8011C9.72869 14.7098 9.73781 14.6304 9.82309 14.5603C9.92741 14.4811 10.0093 14.376 10.0608 14.2555C10.1096 14.1549 10.0608 13.9507 10.1552 13.8746C10.2496 13.7984 10.3624 13.8379 10.4356 13.8379C10.5232 13.8211 10.6133 13.8512 10.6733 13.9171C10.7533 13.9952 10.8461 14.0592 10.9476 14.1061C11.0176 14.1853 10.9842 14.3042 10.9842 14.4109C10.9637 14.5135 10.9756 14.6199 11.0178 14.7157C11.1487 14.8687 11.3407 14.9557 11.542 14.9535C11.676 14.9352 11.673 14.8194 11.7248 14.7219C11.7728 14.6463 11.8247 14.573 11.8802 14.5026C11.9453 14.3971 12.061 14.3336 12.185 14.3349C12.2356 14.3579 12.2578 14.4176 12.2348 14.468C12.2327 14.4725 12.2303 14.477 12.2276 14.4811V14.5299C12.2519 14.6031 12.4927 14.7341 12.5048 14.7371C12.6116 14.7707 12.7272 14.8163 12.7548 14.6853C12.7548 14.6456 12.7548 14.5939 12.7548 14.5543C12.7738 14.4109 12.7173 14.268 12.6055 14.1763C12.4653 14.0696 12.377 14.0149 12.3616 13.8259C12.3613 13.6624 12.3399 13.4995 12.2976 13.3415C12.2976 13.2866 12.2549 13.2256 12.2428 13.1647C12.2229 13.0171 12.2138 12.8685 12.2154 12.7197C12.2154 12.616 12.1757 12.3906 12.2855 12.3266H12.3892C12.441 12.3266 12.4623 12.3509 12.4592 12.3936C12.5111 12.4607 12.4896 12.5095 12.5903 12.5399C12.6909 12.5703 12.8767 12.6099 12.9498 12.5399C13.0229 12.4698 12.9772 12.4576 12.9772 12.4179V12.1467C12.9772 12.0706 12.9405 11.9183 12.9772 11.8419C13.0138 11.7658 13.1356 11.7597 13.2332 11.7627C13.3308 11.7658 13.4069 11.7627 13.4556 11.7139C13.5044 11.6651 13.4768 11.4885 13.5439 11.3939C13.6109 11.2994 13.6962 11.1624 13.812 11.1807C13.8487 11.1807 13.8791 11.2234 13.9064 11.2295C13.9684 11.2463 14.0335 11.2463 14.0954 11.2295C14.1319 11.2203 14.1668 11.2059 14.1991 11.1867C14.2676 11.1685 14.3388 11.1623 14.4093 11.1685H14.8328C14.976 11.1685 15.101 11.2295 15.2412 11.2386C15.4636 11.2386 15.4666 11.1288 15.5642 10.9643C15.6616 10.7999 15.7684 10.7693 15.8415 10.6595C15.942 10.5002 16.0335 10.3354 16.1157 10.1659C16.1836 10.0395 16.2328 9.90418 16.262 9.7637C16.2986 9.58082 16.0335 9.6509 15.9268 9.6053C15.82 9.55954 15.7013 9.41026 15.5855 9.3645C15.4746 9.33314 15.3594 9.3197 15.2442 9.32482C15.1436 9.32482 14.9394 9.27298 14.8632 9.32482C14.8236 9.35218 14.8266 9.3949 14.8084 9.43154C14.7466 9.52178 14.6916 9.6165 14.6439 9.7149C14.6072 9.82162 14.5647 9.91602 14.5311 10.0197C14.5007 10.1135 14.432 10.1898 14.3421 10.2299C14.2165 10.2643 14.0823 10.2432 13.9733 10.172C13.8791 10.1251 13.7943 10.061 13.7234 9.98306C13.6776 9.91298 13.696 9.85202 13.6868 9.7789C13.681 9.71298 13.6556 9.65026 13.6136 9.59906C13.5527 9.49234 13.4856 9.24258 13.3088 9.29426C13.2236 9.32162 13.129 9.4405 13.0498 9.4893C12.9573 9.55298 12.8688 9.62226 12.7847 9.6965C12.7144 9.75954 12.6389 9.81666 12.5592 9.86722C12.4448 9.89314 12.3261 9.89314 12.2119 9.86722C12.0687 9.86722 11.9498 9.77282 11.8279 9.86722C11.7495 9.94434 11.6548 10.0026 11.5506 10.0379C11.4796 10.0568 11.4072 10.0711 11.3343 10.0807C11.2154 10.0807 11.2276 10.0807 11.1759 10.0167C11.124 9.95266 11.0815 9.86738 10.9535 9.83682C10.8461 9.81474 10.7344 9.84146 10.6487 9.90994C10.7 10.0157 10.7591 10.1176 10.8255 10.2147C10.8602 10.2688 10.8525 10.3399 10.8072 10.3855C10.7676 10.4922 10.6792 10.5896 10.6458 10.6903C10.617 10.7543 10.6045 10.8243 10.6092 10.8944C10.62 10.9922 10.5783 11.0885 10.4994 11.1474C10.4133 11.2399 10.3096 11.3144 10.1946 11.3667C10.0605 11.4216 9.96917 11.3667 9.85941 11.2906C9.69797 11.1839 9.62469 10.9858 9.41141 10.9858C9.26517 10.9858 9.01829 11.0437 8.89333 10.9461C8.76837 10.8487 8.83237 10.7237 8.81717 10.6139C8.80309 10.5221 8.79493 10.4295 8.79285 10.3367C8.79285 10.1295 8.61301 10.0685 8.43941 10.0136C8.18037 9.93138 7.87573 9.83074 7.82997 9.5261C8.08805 9.46114 8.36053 9.48818 8.60101 9.60226C8.75413 9.71298 8.89605 9.83858 9.02453 9.97714C9.09429 10.0539 9.18229 10.1115 9.28053 10.1448C9.35061 10.1722 9.41765 10.2027 9.49077 10.2392C9.56389 10.2759 9.67669 10.4282 9.81381 10.4403C9.89797 10.4464 9.98261 10.4464 10.0668 10.4403C10.5148 10.4403 10.1642 9.99538 10.146 9.76386C10.146 9.6237 10.146 9.55058 10.2922 9.53234C10.4384 9.5141 10.597 9.4805 10.597 9.34642C10.597 9.21234 10.4599 9.18498 10.3928 9.1301C10.2864 9.00546 10.1735 8.88642 10.0546 8.77362C9.84133 8.59986 9.51525 8.6669 9.25317 8.6669C9.08869 8.6669 8.94837 8.63026 8.77173 8.63026C8.66501 8.63026 8.56149 8.63026 8.46693 8.63026H8.16213C8.11861 8.62418 8.07461 8.62418 8.03109 8.63026C7.97685 8.66498 7.91861 8.6925 7.85733 8.7125C7.76933 8.73138 7.67877 8.7365 7.58917 8.7277C7.47797 8.72242 7.36661 8.72962 7.25701 8.74898C7.13813 8.77634 7.13813 8.84642 7.15333 8.95618C7.16853 9.06594 7.18069 9.10242 7.19301 9.17554C7.17861 9.23522 7.13845 9.28546 7.08325 9.31266C7.00389 9.41218 6.93637 9.5205 6.88213 9.6357C6.86053 9.68098 6.81637 9.71106 6.76629 9.7149C6.69589 9.76658 6.62869 9.82242 6.56517 9.88258C6.49813 9.9661 6.40469 10.0242 6.30005 10.0471C6.10197 10.0471 5.90085 10.0471 5.69061 10.0471C5.60581 10.0608 5.51941 10.0608 5.43461 10.0471C5.38357 10.0314 5.34373 9.99138 5.32789 9.94034C5.27013 9.88962 5.20917 9.84274 5.14501 9.80018C4.98661 9.62338 5.14501 9.32178 4.96821 9.1541C4.81893 9.25474 4.96821 9.4405 4.96821 9.55634C4.97573 9.63746 4.97573 9.71906 4.96821 9.80018C4.94981 9.9045 4.89605 9.99922 4.81589 10.0683C4.75189 10.1475 4.60565 10.2907 4.48677 10.2237C4.36789 10.1567 4.38005 9.97986 4.34661 9.89154C4.30133 9.79026 4.24181 9.69586 4.16981 9.61122C3.99461 9.4365 3.83733 9.2445 3.70053 9.03826C3.64261 8.92242 3.66085 8.78226 3.60309 8.66946C3.56949 8.6085 3.52693 8.58114 3.50869 8.50802C3.49045 8.34802 3.49045 8.18658 3.50869 8.02658C3.51077 7.9589 3.50357 7.89122 3.48741 7.82546C3.45029 7.68978 3.40245 7.5573 3.34421 7.4293C3.17045 7.46594 3.06693 7.62434 2.90229 7.65474C2.83045 7.66386 2.75781 7.66386 2.68597 7.65474H2.54885C2.50613 7.65474 2.43605 7.65474 2.39349 7.65474C2.32757 7.56626 2.28933 7.46018 2.28373 7.34994C2.28373 7.22498 2.28373 7.09698 2.28373 6.9781C2.28373 6.85922 2.28373 6.76482 2.28373 6.6733C2.27701 6.5813 2.24549 6.49282 2.19237 6.4173C2.14053 6.35026 2.06133 6.31666 2.03701 6.23138C2.01717 6.08178 2.01717 5.9301 2.03701 5.78034C2.03557 5.70066 2.07173 5.62514 2.13445 5.57618C2.18325 5.5365 2.26549 5.52738 2.30821 5.47874C2.35093 5.42994 2.35701 5.2837 2.35397 5.17394C2.35093 5.06418 2.35397 4.97586 2.35397 4.86914C0.825646 6.93266 0.00276551 9.4333 0.00820551 12.0008" fill="#1666BC"/>
<path d="M3.06769 4.29112C3.12257 4.27288 3.17137 4.23016 3.22609 4.218C3.26977 4.22104 3.31345 4.22104 3.35713 4.218C3.41201 4.19976 3.43025 4.16312 3.46081 4.11736C3.49121 4.0716 3.62529 3.98632 3.62529 3.8796C3.62977 3.8268 3.62977 3.77384 3.62529 3.7212C3.62529 3.66936 3.56737 3.642 3.55521 3.5932C3.59185 3.51704 3.80513 3.5596 3.86001 3.5932C3.91937 3.626 3.98753 3.63992 4.05505 3.63288C4.15249 3.61464 4.23793 3.51096 4.30193 3.44088C4.36593 3.3708 4.36289 3.33112 4.40865 3.30376C4.45441 3.2764 4.57937 3.258 4.65553 3.21544C4.75585 3.16728 4.84353 3.0964 4.91153 3.00824C4.95121 2.95336 4.98161 2.89544 5.02433 2.84376C5.09153 2.78216 5.16497 2.72808 5.24369 2.68232C5.28641 2.64872 5.32289 2.60312 5.36257 2.56648C5.40225 2.52984 5.54545 2.4964 5.64593 2.45064C5.70465 2.42152 5.76001 2.38584 5.81041 2.34392C5.87297 2.29624 5.94305 2.25912 6.01761 2.23416C6.13633 2.19112 6.24913 2.13272 6.35281 2.0604C6.38689 2.03256 6.42481 2.01 6.46561 1.99336C6.55217 1.95704 6.63313 1.90888 6.70641 1.85016C6.76753 1.81608 6.82657 1.77848 6.88321 1.73736C6.93201 1.69464 6.97457 1.68248 7.00209 1.6276C7.02945 1.57272 7.02641 1.50872 7.06609 1.49352C7.10577 1.47832 7.13313 1.49352 7.16977 1.49352C7.22993 1.45768 7.28017 1.40744 7.31601 1.34728C7.35265 1.29544 7.38609 1.28936 7.44097 1.262C7.49585 1.23464 7.55073 1.19192 7.60865 1.15832C7.66657 1.12472 7.70609 1.02424 7.73057 0.923603C7.73057 0.886963 7.74881 0.850483 7.75489 0.816883C9.72864 0.0740034 11.8632 -0.136237 13.944 0.207443C13.9867 0.250163 14.0232 0.271443 14.0354 0.332403C14.0384 0.388243 14.0384 0.444243 14.0354 0.500083C14.0376 0.558483 14.0614 0.613843 14.1024 0.655443C14.1477 0.671923 14.1947 0.683123 14.2426 0.689043C14.2923 0.711283 14.3378 0.742163 14.3766 0.780403C14.4163 0.810803 14.468 0.826163 14.4955 0.868723C14.5219 0.913043 14.5366 0.963443 14.5382 1.01496C14.5443 1.07112 14.569 1.12376 14.6083 1.16424C14.6502 1.23144 14.6502 1.31656 14.6083 1.3836C14.5734 1.46456 14.5261 1.5396 14.4682 1.606C14.4456 1.62984 14.4298 1.65928 14.4224 1.69128C14.4224 1.72792 14.4224 1.71256 14.392 1.73704C14.3616 1.76152 14.2213 1.73704 14.1482 1.80408C14.1208 1.83288 14.0914 1.85928 14.0598 1.88328C14.0294 1.90152 13.9989 1.9076 13.9654 1.926C13.932 1.94424 13.868 2.07528 13.8253 2.13928C13.7826 2.20328 13.804 2.25816 13.7949 2.33432C13.7766 2.4684 13.6669 2.49576 13.5419 2.50504C13.479 2.49896 13.4158 2.49896 13.353 2.50504L13.2768 2.56904C13.2494 2.59336 13.1854 2.62088 13.1701 2.65432V2.71528C13.1701 2.76408 13.1701 2.86152 13.2128 2.9012L13.3011 2.9348C13.353 2.95912 13.4688 2.98664 13.4992 3.03544C13.5296 3.08424 13.4992 3.15432 13.4656 3.19992C13.4374 3.27 13.3754 3.32056 13.3011 3.334C13.2627 3.34776 13.2206 3.34776 13.1822 3.334C13.1456 3.31576 13.1274 3.27608 13.0878 3.26088C13.0514 3.24808 13.0136 3.23992 12.975 3.23656C12.9413 3.23512 12.9091 3.22216 12.8837 3.19992L12.8318 3.13592C12.7922 3.10232 12.5667 3.08104 12.5485 3.13592C12.5293 3.20728 12.5403 3.28328 12.5789 3.34616C12.6186 3.39496 12.655 3.398 12.655 3.46504C12.655 3.59 12.6002 3.64792 12.5576 3.76984C12.6936 3.85224 12.8549 3.88248 13.0117 3.85512C13.0698 3.85432 13.1269 3.87016 13.1762 3.90088C13.225 3.93752 13.2158 3.98008 13.1762 4.02584C13.1398 4.10376 13.0949 4.17736 13.0421 4.2452C13.0176 4.28472 12.9814 4.3156 12.9384 4.33352C12.8464 4.34568 12.7531 4.34568 12.6611 4.33352C12.5602 4.3204 12.4582 4.31432 12.3563 4.31528C12.2832 4.31528 12.1674 4.36712 12.1034 4.31528C12.0394 4.26344 12.073 4.2452 12.0454 4.22088C12.0126 4.20088 11.9739 4.19224 11.9357 4.19656C11.8798 4.20712 11.8226 4.18888 11.7834 4.14776C11.695 4.06856 11.5731 4.11112 11.4786 4.0716C11.445 4.0716 11.4176 4.038 11.3811 4.02584C11.3306 4.01176 11.2781 4.00664 11.2258 4.01064C11.1459 4.02376 11.0642 4.0164 10.988 3.98936C10.965 3.97208 10.9392 3.95864 10.9118 3.94968C10.8734 3.94504 10.8346 3.94504 10.796 3.94968C10.7499 3.94584 10.704 3.93864 10.6589 3.9284C10.579 3.91752 10.5018 3.89272 10.4304 3.85528C10.3573 3.8004 10.3694 3.706 10.3725 3.62056C10.3693 3.58712 10.3693 3.55352 10.3725 3.51992C10.3725 3.48024 10.4152 3.44984 10.4243 3.41016C10.2293 3.38584 10.0282 3.41016 9.81488 3.41016C9.68384 3.39192 9.51008 3.24872 9.57408 3.10536C9.5992 3.05656 9.63712 3.0156 9.68384 2.98648C9.7472 2.97416 9.81248 2.97416 9.87584 2.98648C9.95328 3.0004 10.0331 2.99416 10.1074 2.96824C10.1957 2.91032 10.2323 2.79448 10.3512 2.78232C10.4293 2.77032 10.5046 2.74456 10.5736 2.70616C10.6155 2.68344 10.6502 2.64984 10.6742 2.60872C10.7046 2.566 10.7109 2.5508 10.6894 2.50808C10.6459 2.45064 10.585 2.40904 10.5157 2.3892C10.4709 2.36856 10.4218 2.35912 10.3725 2.36184C10.3213 2.3724 10.2683 2.3724 10.2171 2.36184C10.1774 2.36184 10.1744 2.33144 10.147 2.30088C10.0739 2.22776 9.86368 2.2612 9.77216 2.26424C9.68592 2.27032 9.59936 2.27032 9.51312 2.26424C9.4824 2.25496 9.45072 2.24888 9.41872 2.246C9.36688 2.246 9.32737 2.29784 9.29073 2.3252C9.25409 2.35256 9.22672 2.38008 9.17488 2.37096C9.11936 2.3508 9.06016 2.34248 9.00112 2.34664C8.93408 2.36488 8.91888 2.43496 8.88832 2.4868C8.85728 2.53384 8.81921 2.57608 8.77553 2.61176C8.69713 2.67064 8.65169 2.7636 8.65361 2.86168C8.76033 2.9196 8.95841 2.94088 9.01616 3.04152C9.05264 3.1052 9.06752 3.17896 9.05888 3.25176C9.04064 3.41624 8.82112 3.4316 8.69009 3.42552C8.61521 3.4164 8.53953 3.4164 8.46465 3.42552C8.40369 3.4468 8.38241 3.50168 8.34577 3.54744C8.30401 3.60136 8.24033 3.63368 8.17201 3.63576C8.27905 3.82136 8.47585 3.93704 8.69009 3.94056C8.80512 3.95064 8.9208 3.93384 9.02832 3.89176C9.08736 3.86552 9.13873 3.82456 9.17761 3.77288C9.20193 3.74248 9.20801 3.73016 9.25073 3.72712C9.31041 3.7196 9.37089 3.7196 9.43057 3.72712L9.4976 3.782C9.54944 3.81864 9.61952 3.82472 9.64992 3.88568C9.67584 3.95368 9.68832 4.02616 9.68656 4.09896C9.68656 4.24216 9.60432 4.28488 9.4824 4.30312C9.4 4.32376 9.31664 4.34008 9.23248 4.35192C9.18976 4.35192 9.14416 4.35192 9.10144 4.35192C9 4.34504 8.89824 4.34504 8.79664 4.35192C8.74177 4.35192 8.69921 4.39464 8.64129 4.41288C8.57473 4.4308 8.50593 4.438 8.43713 4.43416C8.37121 4.43528 8.30609 4.44872 8.24513 4.47384C8.19681 4.49352 8.14497 4.5028 8.09281 4.5012C7.83377 4.5012 7.57169 4.5012 7.31265 4.5012C7.20897 4.5012 7.10545 4.5012 7.00785 4.5012C6.97745 4.5012 6.91953 4.47992 6.89505 4.5012C6.87073 4.52248 6.85537 4.60488 6.84017 4.63528C6.81905 4.66808 6.80737 4.706 6.80673 4.74504C6.81121 4.78456 6.81121 4.8244 6.80673 4.86392C6.78961 4.91592 6.77537 4.96888 6.76401 5.02232C6.76401 5.11368 6.76401 5.11976 6.83105 5.19C6.89809 5.26008 6.94689 5.24792 7.00177 5.2844C7.04497 5.32152 7.09777 5.34584 7.15409 5.35448H7.30337H7.65073C7.71633 5.35048 7.78097 5.33704 7.84273 5.3148C7.90337 5.29304 7.96721 5.28168 8.03169 5.2812C8.11265 5.2772 8.19169 5.25544 8.26321 5.2172C8.33873 5.17496 8.42129 5.14712 8.50705 5.13496C8.55297 5.13352 8.59713 5.11624 8.63201 5.08616L8.69905 5.03736L8.75696 4.9764C8.83008 4.9428 8.89409 5.01 8.93985 5.06168C8.98561 5.11352 9.07393 5.21704 9.14704 5.2932C9.17584 5.32824 9.21392 5.35448 9.2568 5.36936C9.31248 5.37544 9.36864 5.37544 9.42448 5.36936C9.48544 5.34712 9.54144 5.31288 9.58896 5.26872C9.64512 5.226 9.71344 5.20248 9.784 5.20168H10.4117C10.4696 5.22296 10.5123 5.33272 10.5275 5.38456C10.5494 5.56184 10.475 5.7372 10.3325 5.84472C10.3098 5.86808 10.2842 5.88856 10.2563 5.90568C10.215 5.914 10.1742 5.9252 10.1344 5.93928C10.0491 5.98808 10.0552 6.10376 9.94848 6.12216C9.84176 6.14056 9.58592 6.12216 9.52192 6.28984C9.52192 6.3172 9.52192 6.35688 9.4976 6.38728C9.48032 6.4316 9.4544 6.47192 9.42144 6.50616C9.37872 6.56104 9.3848 6.62808 9.3392 6.68904C9.25472 6.7852 9.16304 6.8748 9.06496 6.9572C9.01265 7.01672 8.94369 7.05912 8.86689 7.07912C8.69665 7.10648 8.52369 7.11256 8.35185 7.09736C8.24209 7.09736 8.13857 7.07608 8.02577 7.07608H6.62097C6.56001 7.07608 6.51729 7.07608 6.47169 7.04872C6.41537 6.9908 6.37729 6.91768 6.36193 6.83848C6.35585 6.79304 6.35585 6.7468 6.36193 6.70136C6.37297 6.6468 6.39473 6.59496 6.42593 6.54904C6.45457 6.4428 6.46193 6.33208 6.44721 6.22296C6.45505 6.1604 6.43873 6.0972 6.40145 6.04616L6.36481 5.99128C6.31905 5.9364 6.24593 5.92424 6.18801 5.88152C6.13009 5.8388 6.13009 5.78408 6.13313 5.7108V5.47928C6.13617 5.43864 6.13617 5.398 6.13313 5.35736C6.13313 5.27208 6.05393 5.23544 6.06913 5.138C6.07505 5.08024 6.09265 5.02424 6.12097 4.97352L6.21233 4.94312C6.27329 4.91576 6.35857 4.84872 6.36161 4.77544C6.36465 4.70232 6.30673 4.60776 6.29761 4.53768C6.28849 4.4676 6.29761 4.44632 6.29761 4.40056C6.29761 4.3548 6.29761 4.26648 6.29761 4.1964C6.29761 4.04408 6.46833 4.02264 6.57185 3.9404C6.62209 3.90472 6.66209 3.8564 6.68769 3.80024C6.68769 3.74536 6.62977 3.68136 6.59025 3.64792C6.53777 3.6092 6.47169 3.59384 6.40737 3.6052C6.34945 3.6052 6.27329 3.58392 6.22145 3.6052C6.07217 3.69048 6.13009 3.93128 6.13009 4.0684C6.14081 4.13816 6.14081 4.20904 6.13009 4.27864C6.10881 4.3244 6.04481 4.36696 6.01121 4.4036C5.97361 4.45048 5.91873 4.48008 5.85889 4.48584C5.80321 4.49192 5.74705 4.49192 5.69121 4.48584C5.61809 4.48584 5.56321 4.45544 5.56321 4.37608C5.56417 4.3012 5.60033 4.23128 5.66065 4.18712C5.72577 4.14536 5.77921 4.0876 5.81601 4.01944C5.84161 3.94712 5.84881 3.86968 5.83729 3.794C5.83729 3.75736 5.85857 3.65992 5.83729 3.63256C5.81601 3.6052 5.68801 3.63256 5.65745 3.63256C5.58417 3.63128 5.51137 3.64584 5.44417 3.67528C5.40449 3.70264 5.39233 3.75144 5.35585 3.77272C5.26753 3.83064 5.13953 3.80008 5.05105 3.79704C4.93873 3.80344 4.83505 3.85928 4.76769 3.94936C4.71569 3.99032 4.67473 4.04376 4.64881 4.10472C4.58193 4.21752 4.48897 4.31272 4.37761 4.382C4.28625 4.47032 4.24353 4.58312 4.15825 4.67144C4.09729 4.67144 4.07601 4.69272 4.01505 4.69272C3.90833 4.69272 3.89313 4.69272 3.84129 4.7964C3.81697 4.8404 3.78625 4.88056 3.74993 4.91528L3.70721 4.97928C3.63713 5.01896 3.54577 4.89704 3.51825 4.84824C3.48433 4.798 3.46721 4.73816 3.46945 4.67752C3.47521 4.62584 3.47521 4.57368 3.46945 4.52216C3.42065 4.40632 3.19825 4.41848 3.10385 4.42152C3.05809 4.42152 2.96065 4.44888 2.93617 4.39416C2.99153 4.33384 3.00369 4.31256 3.06769 4.29112V4.29112Z" fill="#1666BC"/>
<path d="M23.9234 10.7824C23.8472 10.8252 23.7984 10.8098 23.7496 10.7306C23.7008 10.6514 23.6826 10.6026 23.6399 10.5447C23.5546 10.4296 23.4128 10.3709 23.2711 10.3923C23.2359 10.3861 23.1997 10.3861 23.1644 10.3923C23.1156 10.4075 23.0973 10.4472 23.0455 10.4564C22.9074 10.4807 22.7661 10.4807 22.628 10.4564C22.5122 10.4381 22.4543 10.3405 22.3842 10.2492C22.2968 10.1272 22.2336 9.98963 22.1983 9.84387C22.1861 9.75587 22.1861 9.66675 22.1983 9.57875C22.1954 9.48883 22.1736 9.40051 22.1343 9.31971C22.1104 9.25635 22.092 9.19123 22.0794 9.12467C22.0925 9.03683 22.0852 8.94723 22.0581 8.86259C22.0308 8.81379 21.988 8.77731 21.9637 8.72547C21.9394 8.67363 21.8845 8.57619 21.854 8.50611L21.8357 8.42387C21.8096 8.37907 21.7901 8.33091 21.7778 8.28067C21.7778 8.23187 21.7778 8.17699 21.7778 8.12835C21.7778 8.07971 21.732 8.01251 21.726 7.95155C21.7199 7.89059 21.726 7.86019 21.726 7.81747C21.6924 7.62659 21.636 7.44035 21.5583 7.26291C21.5308 7.18499 21.4848 7.11491 21.4242 7.05875C21.3562 7.00499 21.2967 6.94131 21.2474 6.86979C21.216 6.78403 21.1895 6.69651 21.1682 6.60771C21.1309 6.53139 21.0792 6.46307 21.0159 6.40659C20.9605 6.34723 20.9152 6.27939 20.8818 6.20547C20.8351 6.12771 20.7765 6.05779 20.708 5.99827C20.6413 5.94579 20.5845 5.88179 20.5404 5.80931C20.5191 5.75747 20.5191 5.69651 20.5007 5.64483C20.4847 5.59331 20.4744 5.54019 20.4703 5.48643C20.4524 5.39091 20.4184 5.29923 20.3696 5.21523C20.333 5.14819 20.3392 5.05075 20.2904 4.99587C20.2226 4.92851 20.148 4.86819 20.068 4.81603C19.9914 4.75395 19.9181 4.68787 19.8487 4.61795C19.7948 4.57219 19.7466 4.52003 19.7055 4.46259C19.6567 4.38643 19.6018 4.32243 19.5501 4.25235C19.4983 4.18227 19.4952 4.11523 19.4373 4.07251C19.3794 4.02979 19.2636 4.07251 19.2332 3.99331V3.94451C19.222 3.91523 19.2087 3.88675 19.1935 3.85923C19.1508 3.74339 19.1935 3.61539 19.1416 3.49667C19.1268 3.43715 19.1021 3.38051 19.0685 3.32899C19.0319 3.28019 18.9618 3.24371 18.9405 3.18275C18.9375 3.14627 18.9375 3.10963 18.9405 3.07299C18.9405 3.03331 18.9192 3.00291 18.9101 2.96323C18.9023 2.90451 18.8815 2.84835 18.8492 2.79875L18.7639 2.67379C18.7234 2.62019 18.6896 2.56179 18.6632 2.50003C18.6258 2.43011 18.6031 2.35347 18.5962 2.27459C18.5962 2.23491 18.5962 2.18931 18.5962 2.15267C18.5962 2.11603 18.4834 2.06435 18.4408 2.02163C18.3981 1.97891 18.3372 1.91187 18.2732 1.86019C18.2076 1.80227 18.1501 1.73555 18.1024 1.66211C21.3824 3.60419 23.5431 6.98995 23.9234 10.7824" fill="#1666BC"/>
<path d="M16.9725 22.9083C16.7441 23.012 16.5124 23.1094 16.2778 23.1977C16.1316 23.2556 15.973 23.3075 15.8329 23.3592C16.2205 23.2292 16.601 23.0787 16.9725 22.9083V22.9083ZM5.69766 22.1952C5.92006 22.3323 6.1487 22.4633 6.38022 22.5883L6.07542 22.4176L5.70054 22.1952H5.69766ZM1.92198 18.4958C2.22998 18.974 2.57206 19.4292 2.94582 19.8579L2.96406 19.8761V19.8944L2.9823 19.9156C3.6151 20.6312 4.33126 21.2686 5.11542 21.814C4.9631 21.7073 4.81062 21.5977 4.66742 21.4819C4.22102 21.1427 3.8023 20.7688 3.41494 20.3635C3.30214 20.2537 3.19558 20.1411 3.0919 20.0252C2.65606 19.5438 2.25974 19.0283 1.90646 18.4833L1.92198 18.4958ZM23.7985 13.6444V13.6841C23.7997 13.671 23.7997 13.6577 23.7985 13.6444ZM23.7985 13.4129V13.5043C23.7985 13.4739 23.7985 13.4433 23.7985 13.4129ZM23.8169 13.1569C23.8169 13.2088 23.8169 13.2636 23.8017 13.3153C23.8015 13.2636 23.8015 13.2088 23.8169 13.1569ZM23.8503 12.7395C23.8503 12.8766 23.829 13.0168 23.8167 13.1539C23.8169 13.0168 23.8412 12.8766 23.8503 12.7395ZM23.8503 12.5444V12.7364V12.5444ZM23.8503 12.3524V12.4774C23.8503 12.4347 23.8503 12.3921 23.8503 12.3524ZM23.8503 12.1635C23.8517 12.1889 23.8517 12.2144 23.8503 12.2396C23.8519 12.2144 23.8519 12.1889 23.8503 12.1635ZM23.7924 10.7617C23.8228 11.0665 23.8442 11.3712 23.8503 11.676C23.8503 11.3712 23.8229 11.0665 23.7924 10.7617Z" fill="white"/>
<path d="M6.58434 20.665C6.5797 20.7452 6.5797 20.8255 6.58434 20.9058C6.59042 20.9482 6.59042 20.9914 6.58434 21.0338C6.55698 21.1831 6.43506 21.1831 6.34354 21.2653C6.25218 21.3476 6.31922 21.4938 6.34354 21.5701C6.36786 21.6463 6.41362 21.6493 6.42882 21.7255C6.43346 21.7914 6.43346 21.8576 6.42882 21.9236C6.42882 22.21 6.62386 22.4447 6.63298 22.728H6.60258H6.63298L6.7397 22.7829C9.5733 24.1536 12.8311 24.3594 15.8146 23.3559C15.9639 23.304 16.1194 23.2522 16.2595 23.1944C16.4943 23.1061 16.7258 23.0085 16.9543 22.905C16.7258 23.0087 16.4941 23.1061 16.2595 23.1944L16.1925 23.1517C16.113 23.1127 16.0248 23.0949 15.9365 23.0999C15.8359 23.0999 15.7354 23.0999 15.6471 23.0999H15.3423C15.1207 23.1069 14.8989 23.0895 14.681 23.048C14.5808 23.0271 14.4786 23.018 14.3762 23.0207C14.2879 23.0207 14.1994 23.0207 14.1111 23.0207C14.0227 23.0207 13.9343 23.0207 13.849 23.0207H13.7971C13.5866 22.9944 13.3811 22.9368 13.1877 22.85C13.0794 22.8157 12.9659 22.8004 12.8525 22.8042H12.7032C12.5501 22.8088 12.4021 22.7492 12.2949 22.6397C12.2018 22.5664 12.0994 22.506 11.9901 22.4599C11.8543 22.4029 11.7103 22.368 11.5635 22.3562C11.4178 22.3644 11.2787 22.2949 11.1979 22.1733C11.2192 22.1184 11.3899 22.1276 11.4479 22.1063C11.585 22.0636 11.7282 22.018 11.8714 21.9813C11.9768 21.9735 12.0802 21.9466 12.1762 21.9021C12.2914 21.8428 12.4117 21.7938 12.5357 21.7559C12.7061 21.6868 12.8703 21.6031 13.0263 21.506C13.133 21.4359 13.1024 21.4146 13.0263 21.3292C12.9579 21.2404 12.9138 21.1354 12.8983 21.0244L12.4533 21.1096C12.4757 21.1303 12.4898 21.1584 12.493 21.1888C12.493 21.2437 12.3986 21.3199 12.3589 21.3565C12.3213 21.39 12.2866 21.4268 12.2552 21.4663C12.2248 21.5272 12.237 21.5333 12.173 21.57C12.1277 21.5964 12.0759 21.609 12.0237 21.6066C11.9197 21.5989 11.8173 21.5775 11.7189 21.5426C11.6359 21.5178 11.5495 21.5064 11.4629 21.509H11.3136C11.2474 21.5122 11.1823 21.5277 11.1216 21.5548C11.0661 21.5904 11.008 21.622 10.9479 21.6492C10.9002 21.6541 10.8522 21.6541 10.8047 21.6492H10.6706H10.5456H10.4419C10.4146 21.6522 10.3871 21.6522 10.3597 21.6492C10.2736 21.6298 10.1898 21.6013 10.1098 21.5639C9.97267 21.5391 9.83426 21.5218 9.69538 21.512C9.57938 21.4816 9.46115 21.4602 9.34195 21.448C9.13139 21.384 8.93491 21.2805 8.76291 21.1432C7.99763 21.0378 7.2445 20.8581 6.51394 20.6069L6.58434 20.665ZM3.15922 20.0343H3.11346C3.21714 20.1501 3.3237 20.2628 3.4365 20.3725C3.82178 20.7786 4.23858 21.1535 4.6829 21.494C4.82914 21.6098 4.9877 21.7194 5.1309 21.8261L5.24674 21.9053C5.35042 21.9784 5.46002 22.0485 5.55154 22.1186L5.67346 22.1948L6.04834 22.4172L6.35314 22.5879L6.39586 22.6122L6.04546 22.4172C6.03746 22.3469 6.02306 22.2776 6.00274 22.21C5.9661 22.1032 5.92354 22.0972 5.81986 22.0759C5.65266 22.0519 5.48834 22.0111 5.3293 21.954C5.19042 21.888 5.07474 21.7818 4.99714 21.6492C4.93922 21.5485 4.9149 21.4724 4.79602 21.4724H4.76866H4.66498C4.21858 21.1332 3.79986 20.7592 3.4125 20.354C3.3821 20.296 3.36978 20.229 3.33938 20.165C3.30002 20.084 3.22402 20.0272 3.13522 20.0127L3.15922 20.0343ZM22.4211 10.3135C22.3797 10.8039 22.3085 11.2914 22.2079 11.7732C22.2567 11.8109 22.2954 11.86 22.3207 11.9164C22.348 12.0138 22.3207 12.1144 22.3207 12.2028C22.3368 12.2456 22.3594 12.2856 22.3877 12.3216C22.4359 12.404 22.4709 12.4935 22.4914 12.5868C22.52 12.7272 22.5352 12.8701 22.5371 13.0133C22.5523 13.2456 22.5523 13.4788 22.5371 13.7111C22.4815 13.953 22.3943 14.1866 22.2781 14.4058C22.2387 14.4861 22.1863 14.5592 22.1227 14.6221C22.0709 14.6922 22.0557 14.7836 21.9978 14.8599C21.9399 14.936 21.8363 15.0061 21.7631 15.0914C21.6503 15.2316 21.5346 15.3565 21.4127 15.4845C21.3306 15.5765 21.2608 15.6791 21.2055 15.7893C21.1653 15.9096 21.1043 16.022 21.0256 16.1215C20.9983 16.1428 20.9586 16.1612 20.9343 16.1824C20.8893 16.246 20.8591 16.3189 20.8459 16.3957C20.8303 16.5629 20.7848 16.726 20.7119 16.8772C20.6368 16.9679 20.5779 17.0711 20.5381 17.182C20.5138 17.2733 20.5077 17.3648 20.4741 17.4562C20.4071 17.633 20.3979 17.7396 20.5778 17.8463C20.6451 17.89 20.7179 17.9247 20.7941 17.95C20.8642 17.95 21.0043 17.95 21.0623 17.9927C21.1202 18.0354 21.1475 18.2975 21.1323 18.4071C21.1039 18.5133 21.0815 18.6212 21.0653 18.7301C21.0773 18.8359 21.1072 18.9389 21.1536 19.0349C21.1607 19.0954 21.1783 19.1541 21.2055 19.2087C21.2587 19.2903 21.3295 19.3591 21.4127 19.4098C22.6543 17.8392 23.4802 15.981 23.8139 14.0069V13.9765V13.9492V13.9156V13.8789V13.8516V13.7175V13.6778V13.5255C23.8139 13.4951 23.8139 13.4645 23.8139 13.4341V13.4068V13.3764V13.346C23.8139 13.2941 23.8139 13.2392 23.8291 13.1876C23.8291 13.0504 23.8535 12.9103 23.8627 12.7732V12.5812V12.4898C23.8627 12.4471 23.8627 12.4045 23.8627 12.3648V12.252C23.8643 12.2266 23.8643 12.2012 23.8627 12.1759V12.0021V11.6973C23.8627 11.3925 23.8354 11.0879 23.8048 10.7831C23.784 10.7967 23.7597 10.804 23.7347 10.8044C23.6951 10.8044 23.6647 10.7831 23.6341 10.7312C23.6037 10.6794 23.5671 10.6032 23.5243 10.5453C23.4391 10.4303 23.2973 10.3716 23.1555 10.393H23.0946C23.0795 10.3898 23.0639 10.3898 23.0488 10.393C23 10.4082 22.9818 10.4479 22.9299 10.457C22.8567 10.4716 22.7821 10.4786 22.7075 10.4783C22.6426 10.4828 22.5775 10.4828 22.5125 10.4783C22.4343 10.4602 22.3664 10.412 22.3235 10.3442" fill="white"/>
<path d="M12.5266 21.1431C11.3057 21.3504 10.0599 21.369 8.83337 21.1979C9.00537 21.3352 9.20185 21.4386 9.41241 21.5027C9.53177 21.5149 9.64985 21.5363 9.76585 21.5667C9.90489 21.5765 10.0431 21.5938 10.1802 21.6186C10.2602 21.656 10.3439 21.6847 10.4302 21.7039C10.4575 21.7069 10.485 21.7069 10.5124 21.7039H10.6161H10.741H10.8751C10.9228 21.7088 10.9708 21.7088 11.0183 21.7039C11.0785 21.6767 11.1364 21.645 11.1921 21.6095C11.2527 21.5824 11.3178 21.5671 11.3841 21.5637H11.5334C11.6199 21.5611 11.7063 21.5725 11.7894 21.5973C11.8876 21.6322 11.9902 21.6536 12.0942 21.6613C12.1465 21.6637 12.1983 21.6511 12.2434 21.6247C12.3074 21.588 12.2953 21.5819 12.3257 21.521C12.357 21.4815 12.3916 21.4448 12.4294 21.4112C12.469 21.3746 12.5604 21.2984 12.5634 21.2435C12.5604 21.2131 12.5463 21.185 12.5238 21.1643L12.5266 21.1431ZM0.873688 16.4685C1.15689 17.1762 1.50793 17.8549 1.92201 18.4949C2.27513 19.0399 2.67161 19.5554 3.10745 20.0368H3.15929C3.24809 20.0515 3.32409 20.1083 3.36345 20.1891C3.39385 20.2531 3.40617 20.3202 3.43657 20.3781C3.82201 20.7821 4.23881 21.1549 4.68297 21.4935H4.78665H4.81401C4.93289 21.4935 4.95721 21.5696 5.01513 21.6703C5.09273 21.8029 5.20841 21.9091 5.34729 21.9751C5.50633 22.032 5.67065 22.073 5.83785 22.097C5.94153 22.1183 5.98409 22.1243 6.02073 22.2311C6.04105 22.2987 6.05529 22.368 6.06345 22.4383L6.41385 22.6333L6.62105 22.737H6.65145C6.65145 22.4536 6.45641 22.2189 6.44729 21.9325C6.45193 21.8666 6.45193 21.8003 6.44729 21.7344C6.43209 21.6583 6.38937 21.6431 6.36201 21.5791C6.33465 21.5151 6.28585 21.3352 6.36201 21.2743C6.43817 21.2133 6.57529 21.192 6.60281 21.0427C6.60889 21.0003 6.60889 20.9571 6.60281 20.9147C6.59817 20.8346 6.59817 20.7543 6.60281 20.6739C4.31209 19.8827 2.31481 18.4167 0.873688 16.4685V16.4685ZM22.2262 11.7939C21.2452 16.4411 17.6175 20.0736 12.9716 21.0608C12.9871 21.1717 13.0313 21.2768 13.0996 21.3656C13.1727 21.4509 13.2033 21.4723 13.0996 21.5424C12.9434 21.6395 12.7793 21.7231 12.609 21.7923C12.485 21.8303 12.3647 21.8792 12.2495 21.9386C12.1535 21.9831 12.0503 22.0099 11.9447 22.0178C11.8015 22.0544 11.6583 22.1 11.5212 22.1427C11.4633 22.164 11.2927 22.1427 11.2713 22.2098C11.3521 22.3312 11.4913 22.4008 11.6369 22.3927C11.7836 22.4043 11.9278 22.4394 12.0634 22.4963C12.1726 22.5424 12.2751 22.6029 12.3682 22.6762C12.4754 22.7856 12.6234 22.8453 12.7766 22.8407H12.9106C13.0242 22.8367 13.1375 22.8522 13.2458 22.8864C13.4394 22.9733 13.6447 23.0307 13.8553 23.0571H13.9071H14.1692H14.4343C14.5366 23.0544 14.6388 23.0637 14.7391 23.0845C14.957 23.1259 15.1788 23.1434 15.4004 23.1363H15.7052H15.9946C16.083 23.1314 16.1711 23.1491 16.2506 23.1882L16.3177 23.2309C16.5522 23.1426 16.7839 23.045 17.0124 22.9415C18.7388 22.133 20.2473 20.9243 21.4127 19.4157C21.3295 19.365 21.2588 19.2962 21.2055 19.2146C21.1783 19.1602 21.1607 19.1013 21.1537 19.0408C21.1073 18.945 21.0774 18.8419 21.0654 18.736C21.0831 18.6229 21.1075 18.5111 21.1385 18.4008C21.1385 18.2971 21.1628 18.0565 21.0684 17.9864C20.974 17.9163 20.8703 17.9591 20.8003 17.9437C20.7239 17.9186 20.6513 17.8837 20.5839 17.84C20.4041 17.7333 20.4132 17.6267 20.4803 17.4499C20.5139 17.3586 20.5199 17.2671 20.5442 17.1757C20.5841 17.0648 20.6428 16.9618 20.718 16.8709C20.795 16.7304 20.8476 16.5779 20.8734 16.4199C20.8865 16.3431 20.9167 16.2701 20.9617 16.2066C20.986 16.1853 21.0257 16.1669 21.053 16.1456C21.1318 16.0461 21.1926 15.9338 21.2329 15.8135C21.2882 15.7032 21.358 15.6008 21.4401 15.5087C21.562 15.3807 21.6778 15.2557 21.7905 15.1155C21.8636 15.0303 21.9582 14.9663 22.025 14.884C22.0921 14.8018 22.0982 14.7163 22.15 14.6463C22.2135 14.5834 22.266 14.5103 22.3054 14.4299C22.4215 14.2106 22.5087 13.977 22.5644 13.7352C22.5796 13.5029 22.5796 13.2698 22.5644 13.0375C22.5626 12.8941 22.5473 12.7512 22.5186 12.6109C22.4982 12.5176 22.4631 12.4282 22.415 12.3458C22.3866 12.3098 22.3641 12.2698 22.3479 12.2269C22.3479 12.1386 22.3722 12.0379 22.3479 11.9405C22.3226 11.8842 22.2839 11.8351 22.2351 11.7973" fill="#1666BC"/>
<path d="M21.6076 4.83691C22.1857 6.26379 22.4817 7.78907 22.4791 9.32859C22.4791 9.66683 22.4791 10.002 22.4394 10.3342C22.4823 10.402 22.5502 10.4502 22.6284 10.4683C22.6934 10.4727 22.7585 10.4727 22.8234 10.4683C22.8982 10.4686 22.9726 10.4614 23.0458 10.447C23.0977 10.447 23.1159 10.3982 23.1647 10.383C23.1798 10.3798 23.1955 10.3798 23.2105 10.383H23.2715C23.4131 10.3617 23.555 10.4203 23.6403 10.5353C23.683 10.5932 23.7103 10.6572 23.75 10.7212C23.7897 10.7852 23.811 10.7943 23.8505 10.7943C23.8755 10.794 23.8998 10.7867 23.9206 10.7731C23.8342 9.89051 23.6481 9.02059 23.366 8.17979V8.14619C22.9918 7.04795 22.4612 6.00923 21.7905 5.06235L21.629 4.84299" fill="#1666BC"/>
</g>
<defs>
<clipPath id="clip0_191_22460">
<rect width="24" height="24" fill="white"/>
</clipPath>
</defs>
</svg>
