<svg width="126" height="36" viewBox="0 0 126 36" fill="none" xmlns="http://www.w3.org/2000/svg">
<g clip-path="url(#clip0_149_1050)">
<path fill-rule="evenodd" clip-rule="evenodd" d="M47.7442 0.777466V25.2648L28.5972 35.2313L47.7442 0.777466Z" fill="#3CBD0D"/>
<path fill-rule="evenodd" clip-rule="evenodd" d="M47.7461 0.777466L66.8928 35.231L47.7461 25.2648V0.777466Z" fill="#9ED110"/>
<path fill-rule="evenodd" clip-rule="evenodd" d="M47.7442 25.2649L66.891 35.2312H28.597L47.7442 25.2649Z" fill="#038726"/>
<path fill-rule="evenodd" clip-rule="evenodd" d="M70.1644 9.87977C70.1644 2.77688 76.3765 -0.00012207 82.3741 -0.00012207C86.6186 -0.00012207 90.4988 1.01195 94.2604 3.04437L91.5054 8.00223C88.9527 6.82097 85.9948 5.72887 83.1852 5.76698C80.7879 5.79966 75.9359 6.33996 75.9359 9.7813C75.9359 16.5502 95.7199 13.4596 95.7199 25.7718C95.7199 33.7937 89.3423 35.996 82.7052 35.996C78.4722 35.996 73.6875 34.7117 69.7734 33.0697L72.7913 27.64C73.5909 27.972 74.3973 28.2678 75.22 28.535C77.2531 29.1947 80.0489 29.9254 82.1848 29.9254C84.5045 29.9254 89.8469 29.5357 89.8476 26.1161C89.8483 18.885 70.1644 22.1457 70.1644 9.87977Z" fill="#1E212B"/>
<path fill-rule="evenodd" clip-rule="evenodd" d="M6.19224 15.2612H11.5509L19.5979 0.781259H26.1824L16.6112 18.0042L26.1824 35.2269H19.5979L11.5511 20.7476H6.19224V35.2313H0V0.777466H6.19224V15.2612Z" fill="#1E212B"/>
<path fill-rule="evenodd" clip-rule="evenodd" d="M103.121 35.2318H125.999V29.7428H109.313V20.7494H124.572V15.2604H109.313V6.26652H125.999V0.777466H103.121C103.121 12.2624 103.121 23.7469 103.121 35.2318Z" fill="#1E212B"/>
</g>
<defs>
<clipPath id="clip0_149_1050">
<rect width="126" height="36" fill="white"/>
</clipPath>
</defs>
</svg>
